<?xml version="1.0" encoding="utf-8"?>
<!-- Generator: Adobe Illustrator 27.0.0, SVG Export Plug-In . SVG Version: 6.00 Build 0)  -->
<svg version="1.1" id="Layer_1" xmlns="http://www.w3.org/2000/svg" xmlns:xlink="http://www.w3.org/1999/xlink" x="0px" y="0px"
	 viewBox="0 0 198.43 198.43" style="enable-background:new 0 0 198.43 198.43;" xml:space="preserve">
<style type="text/css">
	.st0{fill:url(#SVGID_1_);}
</style>
<radialGradient id="SVGID_1_" cx="122.9223" cy="100.8655" r="103.1238" gradientUnits="userSpaceOnUse">
	<stop  offset="7.201067e-03" style="stop-color:#388D35"/>
	<stop  offset="1" style="stop-color:#94C237"/>
</radialGradient>
<path class="st0" d="M196.23,91.94c-1.64-5.32-5.97-9.63-11.29-11.27c-7.89-2.42-15.34,0.53-19.61,6.04
	c-3.11,4.03-7.58,6.78-12.67,6.78h-13.89c-1.3-15.67-7.93-30.98-19.91-42.97l0,0c-26.89-26.89-70.48-26.89-97.37,0l0,0
	c-26.89,26.89-26.89,70.48,0,97.37l0,0c26.89,26.89,70.48,26.89,97.37,0l0,0c12.12-12.12,18.76-27.64,19.95-43.49l15.49,0
	c4.79,0,9.12,2.27,12.5,5.67c3.21,3.22,7.65,5.22,12.57,5.22C190.94,115.29,200,104.13,196.23,91.94z M108.79,113.26
	c-2.64,4.42-6.39,7.89-11.15,10.33c-4.65,2.38-10.01,3.59-15.93,3.59h-5.83c-5.66,0-10.25-4.59-10.25-10.25V88.12
	c0-0.3,0.25-0.55,0.55-0.55h13.73c0.3,0,0.55,0.25,0.55,0.55v25.17h0.81c3.46,0,6.5-0.66,9.03-1.96c2.46-1.26,4.3-2.96,5.62-5.2
	c1.34-2.28,2-4.89,2-7.97s-0.65-5.69-2-7.98c-1.32-2.24-3.16-3.94-5.62-5.2c-2.54-1.3-5.58-1.96-9.03-1.96H58.27l-4.91,12.81
	l0.04,0.07l-0.5,1.32c-0.99,2.64,0.95,5.45,3.77,5.46l0,0l0.01,0c0,0,0.01,0,0.01,0l4.45,0v12.03c0,0.3-0.25,0.55-0.55,0.55H49.63
	c-2.19,0-4.15,1.36-4.91,3.42l-3,8.1c-0.08,0.22-0.28,0.36-0.51,0.36h-6.35c-5.2,0-8.72-5.32-6.67-10.1l18.56-43.51
	c1.14-2.67,3.77-4.41,6.67-4.41h3.83h6.35h18.12c5.91,0,11.26,1.21,15.92,3.59c4.76,2.44,8.51,5.91,11.16,10.33
	c2.63,4.4,3.96,9.48,3.96,15.1S111.42,108.86,108.79,113.26z M179.36,106.45c-4.91,0-8.89-3.98-8.89-8.89
	c0-4.88,3.99-8.85,8.89-8.85c4.88,0,8.84,3.96,8.84,8.85C188.2,102.47,184.24,106.45,179.36,106.45z"/>
</svg>
