<?xml version="1.0" encoding="UTF-8"?>
<svg width="80px" height="80px" viewBox="0 0 80 80" version="1.1" xmlns="http://www.w3.org/2000/svg" xmlns:xlink="http://www.w3.org/1999/xlink">
    <!-- Generator: Sketch 61.2 (89653) - https://sketch.com -->
    <title>Artboard</title>
    <desc>Created with Sketch.</desc>
    <g id="Artboard" stroke="none" stroke-width="1" fill="none" fill-rule="evenodd">
        <g id="collabora-icon" transform="translate(16.000000, 0.000000)">
            <circle id="Oval" fill="#FFFFFF" cx="25" cy="25" r="22"></circle>
            <path d="M26.0594816,78.9597713 L24.9348678,78.9597713 C18.5323194,78.9597713 13.3235232,73.7282664 13.3235232,67.297805 L13.3235232,53.6663245 L37.6708263,53.6663245 L37.6708263,67.297805 C37.6708263,73.7282664 32.46203,78.9597713 26.0594816,78.9597713 L26.0594816,78.9597713 Z" id="Path" fill="#FFFFFF"></path>
            <circle id="Oval" fill="#AFDF00" cx="24.5" cy="18.5" r="5.5"></circle>
            <circle id="Oval-Copy-4" fill="#DFD500" cx="5" cy="18" r="5"></circle>
            <circle id="Oval-Copy-4" fill="#DF00BA" cx="24.5" cy="43.5" r="5.5"></circle>
            <g id="Group-47">
                <polygon id="Fill-1" fill="#222222" points="19.3881451 3.03691428 15.586548 3.03691428 13.6857495 6.07357928 15.586548 9.11074284 19.3881451 9.11074284 21.2889436 6.07357928"></polygon>
                <polygon id="Fill-2" fill="#000000" points="26.6110518 40.9983428 22.04888 40.9983428 19.7683048 44.793995 22.04888 48.5906285 26.6110518 48.5906285 28.8921378 44.793995"></polygon>
                <polygon id="Fill-3" fill="#000000" points="25.8511002 15.1845714 22.8093423 15.1845714 21.2889436 18.2214857 22.8093423 21.2584 25.8511002 21.2584 27.3714989 18.2214857"></polygon>
                <polygon id="Fill-4" fill="#000000" points="7.22289425 15.1845714 3.42157755 15.1845714 1.52063883 18.220932 3.42157755 21.2584 7.22289425 21.2584 9.12383297 18.220932"></polygon>
                <polygon id="Fill-6" fill="#000000" points="29.6524572 36.4429714 28.1318183 36.4429714 27.3714989 37.9614285 28.1318183 39.4798856 29.6524572 39.4798856 30.4127766 37.9614285"></polygon>
                <polygon id="Fill-7" fill="#000000" points="44.8588455 36.4429714 43.3382066 36.4429714 42.5778872 37.9611486 43.3382066 39.4798856 44.8588455 39.4798856 45.6191649 37.9611486"></polygon>
                <polygon id="Fill-8" fill="#000000" points="35.7350125 16.7030285 34.2143737 16.7030285 33.4540542 18.2214857 34.2143737 19.7399428 35.7350125 19.7399428 36.4953319 18.2214857"></polygon>
                <polygon id="Fill-9" fill="#000000" points="15.9668305 19.7399428 14.4459461 19.7399428 13.6857495 21.258703 14.4459461 22.7768571 15.9668305 22.7768571 16.7270271 21.258703"></polygon>
                <polygon id="Fill-10" fill="#000000" points="6.8429975 9.11074284 5.32211313 9.11074284 4.56191649 10.6292 5.32211313 12.1476571 6.8429975 12.1476571 7.60319415 10.6292"></polygon>
                <polygon id="Fill-11" fill="#000000" points="23.5701474 0 22.8095824 1.51815411 23.5701474 3.03691428 25.0902952 3.03691428 25.8508601 1.51815411 25.0902952 0"></polygon>
                <polygon id="Fill-12" fill="#000000" points="0.760196644 25.8137714 0 27.3328347 0.760196644 28.8506857 2.28108101 28.8506857 3.04127766 27.3328347 2.28108101 25.8137714"></polygon>
                <polygon id="Fill-13" fill="#000000" points="29.6522873 12.1476571 28.1313086 12.1476571 27.3714989 12.9070954 28.1313086 13.6661143 29.6522873 13.6661143 30.4127766 12.9070954"></polygon>
                <polygon id="Fill-14" fill="#000000" points="41.8180775 7.5922857 40.2970989 7.5922857 39.5366096 8.35172394 40.2970989 9.11074284 41.8180775 9.11074284 42.5778872 8.35172394"></polygon>
                <polygon id="Fill-15" fill="#000000" points="47.5200633 25.8137714 47.1398037 26.5732464 47.5200633 27.3322285 48.280183 27.3322285 48.6604425 26.5737392 48.6604425 26.5722607 48.280183 25.8137714"></polygon>
                <polygon id="Fill-16" fill="#000000" points="34.974573 3.03691428 31.9335355 3.03691428 30.4127766 6.07327488 31.9335355 9.11074284 34.974573 9.11074284 36.4953319 6.07327488"></polygon>
                <polygon id="Fill-17" fill="#000000" points="46.7599257 13.6661143 42.9577652 13.6661143 41.0572484 16.7032884 42.9577652 19.7399428 46.7599257 19.7399428 48.6604425 16.7032884"></polygon>
                <polygon id="Fill-19" fill="#000000" points="7.22318293 30.3691428 3.42188283 30.3691428 1.52063883 33.4060571 3.42188283 36.4429714 7.22318293 36.4429714 9.12383297 33.4060571"></polygon>
                <polygon id="Fill-20" fill="#000000" points="23.9499216 27.3322285 20.1486044 27.3322285 18.2476659 30.369401 20.1486044 33.4060571 23.9499216 33.4060571 25.8508601 30.369401"></polygon>
                <polygon id="Fill-21" fill="#000000" points="39.5367443 40.9983428 36.4951971 40.9983428 34.9746931 43.2762615 36.4951971 45.5537142 39.5367443 45.5537142 41.0572484 43.2762615"></polygon>
                <polygon id="Fill-22" fill="#000000" points="12.1652454 42.5167999 9.12369823 42.5167999 7.60319415 44.7947187 9.12369823 47.0721713 12.1652454 47.0721713 13.6857495 44.7947187"></polygon>
                <g id="Group-46" fill="#000000">
                    <path d="M14.4386583,54.7863213 L14.4386583,67.297805 C14.4386583,73.1105882 19.1473164,77.8397745 24.9348678,77.8397745 L26.0594816,77.8397745 C31.847033,77.8397745 36.5556911,73.1105882 36.5556911,67.297805 L36.5556911,54.7863213 L14.4386583,54.7863213 Z M26.0594816,78.9597713 L24.9348678,78.9597713 C18.5323194,78.9597713 13.3235232,73.7282664 13.3235232,67.297805 L13.3235232,53.6663245 L37.6708263,53.6663245 L37.6708263,67.297805 C37.6708263,73.7282664 32.46203,78.9597713 26.0594816,78.9597713 L26.0594816,78.9597713 Z" id="Fill-23" stroke="#000000" stroke-width="1.44"></path>
                    <polygon id="Fill-25" stroke="#000000" stroke-width="1.44" points="13.7356771 60.6663043 37.1133702 60.6663043 37.1133702 59.5463075 13.7356771 59.5463075"></polygon>
                    <polygon id="Fill-27" stroke="#000000" stroke-width="1.44" points="13.7356771 66.8727663 37.1133702 66.8727663 37.1133702 65.7527695 13.7356771 65.7527695"></polygon>
                    <polygon id="Fill-28" points="6.30162868 31.5234287 5.84888382 31.1963896 14.2123974 19.5293834 14.6651422 19.8564225"></polygon>
                    <polygon id="Fill-29" points="13.0958683 35.2771538 14.8120613 19.4756796 15.3662835 19.5372794 13.737071 34.535716 15.5045602 34.0837973 20.2712054 29.9442893 19.7498797 26.7993384 15.7549081 20.9204754 16.2154589 20.6046363 20.2890475 26.6470188 20.8722632 30.1615686 15.7694048 34.5933958"></polygon>
                    <polygon id="Fill-30" points="23.5268982 26.5140752 23.0072452 26.3119158 24.7725041 21.738969 25.2921571 21.9411284"></polygon>
                    <polygon id="Fill-31" points="38.9497957 28.9401833 24.3501467 27.1582973 24.414267 26.6016589 39.013916 28.3835449"></polygon>
                    <polygon id="Fill-32" points="35.6359834 17.1800222 32.4885145 9.62844411 33.0025918 9.41172474 36.1500607 16.9633029"></polygon>
                    <polygon id="Fill-33" points="29.5555975 12.1651808 29.4005938 5.69943949 29.9581613 5.68655953 30.1131651 12.1523008"></polygon>
                    <polygon id="Fill-34" points="27.3160716 17.8767722 26.8382362 17.588933 29.3472903 13.3889452 29.8251257 13.6767844"></polygon>
                    <polygon id="Fill-35" points="24.1034788 16.6183999 23.824695 1.87196258 24.3822626 1.86076261 24.6610464 16.6071999"></polygon>
                    <polygon id="Fill-36" points="30.2666635 4.43238716 25.1554415 0.978877164 25.4671218 0.514078511 30.5783437 3.96758851"></polygon>
                    <polygon id="Fill-37" points="39.3527846 42.7720601 38.1149846 40.738706 40.6524746 30.5450555 43.3087265 20.2444454 41.1855092 18.1125315 36.4740632 18.3662108 39.2356954 26.5097072 38.7076789 26.6900267 35.708523 17.8465323 41.4046333 17.5402132 43.9281841 20.0753258 41.1933151 30.6828151 38.7132546 40.6468663 39.5206124 41.9735024 43.5730135 39.1494306 44.9401692 36.8472773 48.3396587 25.0352315 46.22592 20.4051649 45.033283 14.7794212 40.9808819 9.89959532 40.2482381 8.68495884 34.9028378 4.70449037 35.2345905 4.25537167 40.6976376 8.34839982 41.4336268 9.57591626 45.549033 14.5268619 46.7650879 20.2578853 48.9334682 24.9904316 45.4375195 37.1031965 43.9410081 39.5750294"></polygon>
                    <polygon id="Fill-38" points="27.5828677 47.4489425 23.9207639 40.736242 22.4342888 31.2162696 22.9851655 31.1294698 24.4638347 40.6007224 27.8728029 46.8167044 35.5861926 45.213989 36.6059837 41.2895204 31.6057177 38.1697694 29.6631523 35.910736 37.1100248 29.007076 37.4880556 29.4186748 30.4376137 35.9549758 31.9993604 37.7710506 37.2494167 41.0302411 36.0383799 45.6916676"></polygon>
                    <polygon id="Fill-39" points="22.5549464 48.5257074 12.9803961 46.3579537 10.2945931 42.9604436 13.016638 38.0582178 15.0941347 37.1168605 22.6090304 40.8145298 22.3637007 41.3179683 15.0846561 37.7356587 13.4136261 38.4922165 10.9631166 42.9055637 13.2954217 45.8545152 22.6781688 47.979709"></polygon>
                    <polygon id="Fill-40" points="8.44530872 42.7151643 3.98867113 36.0131037 4.45256735 35.7028646 8.90920494 42.4043652"></polygon>
                    <polygon id="Fill-41" points="3.99184927 29.8094976 1.94334601 26.8527062 0.521548706 24.9677517 3.92605629 19.8129666 3.32778629 15.4684992 5.82847684 10.696193 7.42088982 8.75523864 14.679862 4.88564985 19.0450585 2.2794174 24.1936375 0.38998287 24.3843256 0.915821347 19.2831399 2.78285594 14.9530701 5.37340843 7.7325701 9.22339728 6.29125793 11.0030721 3.90486872 15.5698589 4.50759927 19.9468062 1.20456898 24.9453517 2.39441818 26.5239872 4.44905467 29.4902986"></polygon>
                    <polygon id="Fill-42" points="22.6693035 16.3066488 18.9430794 9.47690855 19.4320662 9.20754933 23.1582903 16.0378495"></polygon>
                    <polygon id="Fill-43" points="13.8968699 19.0399448 7.74801472 19.0399448 7.74801472 18.4799465 13.6799761 18.4799465 14.6300712 17.604669 14.9869145 9.33013297 15.5444821 9.3542129 15.177045 17.8611483"></polygon>
                    <polygon id="Fill-44" points="26.7056467 41.2747364 26.3331915 40.8580976 28.9593348 38.4865045 29.3317899 38.9037033"></polygon>
                    <polygon id="Fill-45" points="27.9264409 18.9458651 27.9002352 18.3869867 33.7546947 18.1069875 33.7809003 18.6658659"></polygon>
                </g>
                <polygon id="Fill-5" fill="#45C4FF" points="15.5 34 12.5 34 11 36.0002845 12.5 38 15.5 38 17 36.0002845"></polygon>
                <polygon id="Fill-18" fill="#E14500" points="42.578022 27.3322285 39.5364748 27.3322285 38.0159707 29.1100961 39.5364748 30.8875999 42.578022 30.8875999 44.098526 29.1100961"></polygon>
            </g>
        </g>
    </g>
</svg>