<?xml version="1.0" encoding="UTF-8"?>
<svg width="135px" height="135px" viewBox="0 0 135 135" version="1.1" xmlns="http://www.w3.org/2000/svg" xmlns:xlink="http://www.w3.org/1999/xlink">
    <!-- Generator: Sketch 54.1 (76490) - https://sketchapp.com -->
    <title>Group 6</title>
    <desc>Created with Sketch.</desc>
    <g id="Symbols" stroke="none" stroke-width="1" fill="none" fill-rule="evenodd">
        <g id="logo-open" transform="translate(-1.000000, 0.000000)" fill="#E22419">
            <g id="Group-6">
                <path d="M67.4781428,30 C47.2923389,30 30.6268364,45.841739 30.0174052,65.8874756 C29.3925453,86.3112422 45.6697603,103.368259 66.3698521,103.98224 C66.7555681,103.994926 67.1387127,104 67.5218572,104 C87.7076611,104 104.370592,88.158261 104.982595,68.1125244 C105.607455,47.6887578 89.3302397,30.6317414 68.6275764,30.0177598 C68.2418604,30.0050742 67.8612873,30 67.4781428,30 M67.4807142,37.6113416 L67.4807142,37.6113416 C67.7867156,37.6113416 68.0901455,37.6164158 68.3961468,37.6240272 C84.8122197,38.1136901 97.7671343,51.6872493 97.2708464,67.8867213 C96.7822728,83.8680015 83.7142148,96.3886584 67.5218572,96.3886584 C67.2132845,96.3886584 66.9098545,96.3835842 66.6038532,96.3734357 C50.1852089,95.888847 37.2328657,82.3127507 37.7265822,66.1132787 C38.2151558,50.1345356 51.2857852,37.6113416 67.4807142,37.6113416" id="Fill-1"></path>
                <g id="Group-5">
                    <path d="M32.0446509,115.120104 C43.0586132,123.551236 56.8286132,127.899255 70.7947453,127.308311 C99.9318208,126.12133 124.287858,103.377651 127.453991,74.4010472 C129.361821,56.9452925 123.587387,39.6372736 111.615689,26.9218019 C99.6414434,14.203783 82.7053113,7.41812264 65.1731415,8.25104717 C36.7441792,9.63416038 12.6428585,31.9575566 9.11757547,60.1725566 C7.64276415,71.9685 9.61427358,83.744066 14.8206887,94.2307642 C15.3250283,95.2419906 15.3403113,96.388217 14.9378585,97.3714245 L8.94182075,114.91633 C8.41710377,116.447179 9.22200943,117.524632 9.59134906,117.919443 C9.96068868,118.311708 10.9897453,119.185387 12.546066,118.749821 L28.5550283,114.345764 C29.8184245,114.004443 31.1123868,114.327934 32.0446509,115.120104 M68.3520094,135.000764 C54.1158774,135.000764 40.2236132,130.517745 28.7740849,122.211425 L14.5736132,126.116236 C10.7706887,127.155481 6.73087736,126.027085 4.02578302,123.156425 C1.32068868,120.28067 0.434273585,116.177179 1.71040566,112.443028 L7.27342453,96.1691604 C1.92436792,84.7068962 -0.0598773585,71.9710472 1.53465094,59.2250094 C5.51333019,27.3751981 32.7145566,2.18114151 64.8038019,0.619726415 C84.6004057,-0.358386792 103.671066,7.33661321 117.178708,21.6822736 C130.686349,36.0304811 137.202009,55.5468962 135.049651,75.2314245 C131.478519,107.934538 103.989462,133.604915 71.1055,134.944726 C70.1885189,134.982934 69.2689906,135.000764 68.3520094,135.000764" id="Fill-3"></path>
                </g>
            </g>
        </g>
    </g>
</svg>