<?xml version="1.0" encoding="UTF-8"?>
<svg width="66px" height="56px" viewBox="0 0 66 56" version="1.1" xmlns="http://www.w3.org/2000/svg" xmlns:xlink="http://www.w3.org/1999/xlink">
    <!-- Generator: Sketch 54.1 (76490) - https://sketchapp.com -->
    <title>icon/open</title>
    <desc>Created with Sketch.</desc>
    <g id="icon/open" stroke="none" stroke-width="1" fill="none" fill-rule="evenodd">
        <g id="Group-6" transform="translate(5.000000, 0.000000)">
            <path d="M2.54882813,49.4418945 L3.55852742,43.8168945 L4.68505859,38.914321 L2.54882813,29.2001953 C0.262898763,24.9335185 2.33662923,18.2180237 8.77001953,9.05371094 C15.2034098,-0.110601847 27.5162354,-0.626552368 45.7084961,7.50585937 L54.612793,25.6061611 C52.3644206,37.0760771 50.0519206,43.7677409 47.675293,45.6811523 C37.4988607,52.5079753 30.7631836,55.4969076 27.4682617,54.6479492 C20.6306966,52.3992513 16.6720378,51.0655924 15.5922852,50.6469727 C14.5125326,50.2283529 13.2672526,49.5535482 11.8564453,48.6225586 L8.07519531,49.4418945 L5.47900391,50.6469727 L2.54882813,49.4418945 Z M18.5,36.5 L26.4960938,40.4204102 L33.1655273,39.7177734 L38.9790039,36.5 L43.0322266,27.9047576 L40.8109857,21.5288086 L38.9790039,16.7036133 L30.7661133,13.8525391 L20.8544922,15.831543 L17.0751953,19.7988281 L14.8110352,25.7792969 L14.8110352,30.331543 L17.0751953,34.6757812 L18.5,36.5 Z" id="Combined-Shape" fill="#FFFFFF"></path>
            <path d="M28.4909657,13 C20.1475001,13 13.2590924,19.4223266 13.0071941,27.5489766 C12.7489187,35.828882 19.4768343,42.7438886 28.0328722,42.9928001 C28.1923015,42.9979429 28.3506679,43 28.5090343,43 C36.8524999,43 43.7398447,36.5776734 43.9928059,28.4510234 C44.2510813,20.171118 37.5231657,13.2561114 28.9660649,13.0071999 C28.8066356,13.0020571 28.6493321,13 28.4909657,13 M28.4920285,16.085679 L28.4920285,16.085679 C28.6185091,16.085679 28.7439268,16.0877361 28.8704074,16.0908218 C35.6557175,16.2893338 41.0104155,21.7921281 40.8052832,28.3594816 C40.6033394,34.838379 35.2018754,39.914321 28.5090343,39.914321 C28.3814909,39.914321 28.2560732,39.9122639 28.1295926,39.9081496 C21.3432197,39.7116947 15.9895845,34.2078719 16.193654,27.6405184 C16.3955977,21.1626496 21.7981246,16.085679 28.4920285,16.085679" id="Fill-1" fill="#E22419"></path>
            <g id="Group-5" fill="#E22419">
                <path d="M13.1948563,47.4023957 C17.7300172,50.8740383 23.4000172,52.664399 29.1507775,52.4210694 C41.1483968,51.9323124 51.1773535,42.567268 52.4810549,30.6357253 C53.2666321,23.4480616 50.888924,16.3212303 45.9594012,11.0854478 C41.0288296,5.84861654 34.0551282,3.05452109 26.8359994,3.39749001 C15.1299562,3.96700721 5.20588291,13.1589939 3.75429578,24.7769351 C3.14702053,29.6340882 3.95881853,34.4828507 6.10263651,38.8009029 C6.31030577,39.2172902 6.31659878,39.6892658 6.15088291,40.094116 L3.68192619,47.3184889 C3.46586626,47.9488385 3.797298,48.3924956 3.94937902,48.5550649 C4.10146004,48.7165855 4.52518923,49.0763357 5.16602719,48.896985 L11.7579528,47.0835499 C12.2781748,46.9430061 12.8109828,47.0762081 13.1948563,47.4023957 M28.1449451,55.5885499 C22.2830083,55.5885499 16.5626643,53.742601 11.8481526,50.3223513 L6.00089956,51.9302148 C4.43498946,52.3581393 2.77153774,51.8935055 1.65767536,50.7114689 C0.543812986,49.5273346 0.178818535,47.837662 0.704284684,46.3000705 L2.99493951,39.599066 C0.792386792,34.8793102 -0.0246553829,29.6351371 0.631915094,24.3867686 C2.27019478,11.2721404 13.4706998,0.898117092 26.6839184,0.255181465 C34.8354612,-0.147571032 42.688086,3.02095838 48.250056,8.92799501 C53.8120261,14.8360805 56.4949451,22.8722514 55.6086798,30.9776454 C54.1382137,44.4436332 42.8191903,55.0137886 29.2787353,55.5654756 C28.9011548,55.5812081 28.5225255,55.5885499 28.1449451,55.5885499" id="Fill-3"></path>
            </g>
        </g>
    </g>
</svg>