<!-- Generated by IcoMoon.io -->
<svg version="1.1" xmlns="http://www.w3.org/2000/svg" width="1207" height="1024" viewBox="0 0 1207 1024">
<title></title>
<g id="icomoon-ignore">
</g>
<path fill="#fff" d="M817.243 821.504c53.522 50.048 166.693 79.36 261.614 73.838-17.792-31.835-72.686-103.662-79.104-151.973 87.881-75.995 133.961-194.505 133.961-303.122 0-173.221-143.579-325.12-381.897-330.533-175.287 0-367.817 151.241-367.817 330.533 0 179.273 152.283 385.152 415.397 382.574 6.034-0.293 11.977-0.75 17.847-1.317z"></path>
<path fill="#555" d="M1055.616 912.457c-95.269 0-191.945-29.495-244.005-73.947-3.785 0.311-7.589 0.549-11.429 0.75l-5.669 0.037c-263.735-0.018-426.971-207.159-426.971-399.049 0-160.475 167.863-346.99 384.274-346.99 198.144 4.498 398.354 125.129 398.354 346.99 0 116.809-50.597 234.35-132.535 309.248 7.735 31.872 35.291 74.405 55.863 106.203 8.064 12.471 15.104 23.351 19.73 31.634l12.8 22.93-26.24 1.518c-7.936 0.457-16.018 0.677-24.174 0.677zM823.058 804.389l5.449 5.083c43.118 40.338 133.431 68.791 221.221 70.016-1.243-1.92-2.542-3.913-3.858-5.925-24.101-37.248-57.125-88.247-62.427-128.018l-1.152-8.814 6.711-5.797c79.122-68.407 128.274-179.803 128.274-290.688 0-200.741-184.009-309.943-365.806-314.075-158.793 0-351.013 140.105-351.013 314.075 0 176.073 150.656 366.135 394.057 366.153l4.718-0.037c5.138-0.256 10.825-0.695 16.421-1.225l7.406-0.75z"></path>
<path fill="#fff" d="M417.499 821.211c-22.034 67.657-146.706 98.743-234.642 111.36 16.347-29.403 32.969-127.415 32.969-169.051 0-0.494 0-0.987 0.018-1.481-81.573-65.682-124.416-173.915-124.416-272.75 0-151.003 176.366-288.146 325.998-288.146 149.65 0 314.002 131.84 314.002 288.146 0 146.597-114.377 313.637-313.929 331.922z"></path>
<path fill="#555" d="M152.375 953.563l16.11-29.001c13.349-24.046 29.312-111.506 30.793-154.917-76.873-65.353-124.306-171.959-124.306-280.357 0-164.041 188.306-304.603 342.455-304.603 152.814 0 330.459 133.065 330.459 304.603 0 153.838-119.022 323.749-318.811 347.264-31.963 68.187-148.955 98.688-243.895 112.311l-32.805 4.699zM417.426 217.6c-136.448 0-309.541 127.927-309.541 271.689 0 101.577 45.33 201.179 118.29 259.913l6.272 5.047-0.146 8.064c0 34.725-10.569 105.289-23.899 149.522 109.787-19.218 179.712-53.595 193.426-95.726l3.365-10.295 10.789-1.006c187.136-17.152 298.971-173.897 298.971-315.52 0.018-150.491-162.761-271.689-297.527-271.689z"></path>
</svg>
