<?xml version="1.0" encoding="UTF-8"?>
<svg width="107px" height="107px" viewBox="0 0 107 107" version="1.1" xmlns="http://www.w3.org/2000/svg" xmlns:xlink="http://www.w3.org/1999/xlink">
    <!-- Generator: Sketch 54.1 (76490) - https://sketchapp.com -->
    <title>Group 39</title>
    <desc>Created with Sketch.</desc>
    <defs>
        <polygon id="path-1" points="0.0880526316 0.31163 9.94947368 0.31163 9.94947368 10.61643 0.0880526316 10.61643"></polygon>
        <polygon id="path-3" points="0.19305 0.15675 10.49675 0.15675 10.49675 10.46144 0.19305 10.46144"></polygon>
    </defs>
    <g id="Sicurezza" stroke="none" stroke-width="1" fill="none" fill-rule="evenodd">
        <g id="OT-SICUREZZA" transform="translate(-667.000000, -335.000000)">
            <g id="Group-39" transform="translate(667.000000, 335.000000)">
                <path d="M36.1820916,99 C36.1378623,99 36.0914488,98.9891143 36.0499497,98.9662544 C35.920538,98.8938647 35.8746706,98.729491 35.946748,98.6004957 L37.5220761,95.7887257 C37.5941535,95.6591861 37.7585118,95.6134663 37.8895616,95.6853118 C38.0184273,95.7577015 38.0642947,95.9215309 37.9916713,96.0510705 L36.4163432,98.8633848 C36.3677455,98.9510145 36.2765567,99 36.1820916,99 M35.0212086,93.8548854 C34.8972573,93.8548854 34.786411,93.7694328 34.7591089,93.6437033 L33.0423562,85.7771698 C33.0112319,85.631846 33.1024207,85.4897879 33.2482137,85.4582195 C33.3956447,85.426651 33.5370693,85.5180907 33.5687397,85.6628702 L35.2849464,93.529948 C35.3166167,93.6736389 35.2254279,93.8173298 35.079635,93.848354 C35.0599775,93.8532526 35.0408661,93.8548854 35.0212086,93.8548854 M39.3332939,93.3775485 C39.2874264,93.3775485 39.2426511,93.3666629 39.201698,93.3432586 C39.0711942,93.2708689 39.0258728,93.1075838 39.0979502,92.9780442 L40.6738244,90.1668185 C40.7459018,90.037279 40.9108062,89.9910148 41.0396718,90.0634046 C41.1696296,90.1357943 41.216043,90.2996237 41.1434196,90.428619 L39.5680915,93.2398447 C39.5184018,93.328563 39.4272129,93.3775485 39.3332939,93.3775485 M83.5817214,91.2058562 C83.5451367,91.2058562 83.508552,91.1982363 83.4725133,91.1829963 L80.5195239,89.8772595 C80.3835597,89.816844 80.3224031,89.6590017 80.3824676,89.5229308 C80.4436242,89.3868598 80.60143,89.3269886 80.7379402,89.3863155 L83.6909296,90.6920523 C83.8274399,90.7519236 83.8891425,90.9097659 83.8274399,91.0463811 C83.7837566,91.1465293 83.6849232,91.2058562 83.5817214,91.2058562 M82.4601534,88.8991816 C82.3689645,88.8991816 82.2799598,88.8523732 82.228632,88.7674649 L80.5823186,85.9959719 C80.5069649,85.8691537 80.5506482,85.7042358 80.6767836,85.6285803 C80.8051033,85.5534692 80.9694616,85.5948347 81.0475454,85.7227414 L82.6927668,88.4942344 C82.7686665,88.6221411 82.7260753,88.7865148 82.5983017,88.8621703 C82.5546184,88.8877516 82.5071129,88.8991816 82.4601534,88.8991816 M42.4844962,87.7545528 C42.4386287,87.7545528 42.3938534,87.7431228 42.3529003,87.7197186 C42.2229425,87.6478731 42.175437,87.484588 42.2486065,87.3555928 L46.1877458,80.326712 C46.2603693,80.1966282 46.4247276,80.1514526 46.5541393,80.2232981 C46.683551,80.2956878 46.7305105,80.4589729 46.6584331,80.5879682 L42.7182017,87.616849 C42.669604,87.7044787 42.5778692,87.7545528 42.4844962,87.7545528 M75.7056269,87.7240729 C75.6695882,87.7240729 75.6330035,87.7169972 75.5975108,87.701213 L68.2128532,84.4376874 C68.077435,84.3778162 68.0162784,84.2199739 68.0763429,84.0839029 C68.1369535,83.9483763 68.2969435,83.8879608 68.4318156,83.947832 L75.8153812,87.2108133 C75.9518914,87.2706845 76.0125019,87.4296154 75.9524374,87.5656863 C75.9082081,87.6658345 75.8093747,87.7240729 75.7056269,87.7240729 M79.1697107,83.3567398 C79.0768837,83.3567398 78.987879,83.3093871 78.9360051,83.2244788 L74.8221327,76.2973791 C74.7473251,76.1700167 74.7899163,76.0050988 74.9171438,75.9299876 C75.0449174,75.8548764 75.2103678,75.8967863 75.2862675,76.0241487 L79.401232,82.952337 C79.4765857,83.0796994 79.4339945,83.2446173 79.3067669,83.3197285 C79.2636297,83.3442213 79.2161241,83.3567398 79.1697107,83.3567398 M65.3690719,83.1564434 C65.3313951,83.1564434 65.2948104,83.1482791 65.2587717,83.1335835 L62.3074204,81.8278467 C62.1709102,81.7674312 62.1092075,81.6085003 62.1703641,81.4735179 C62.2309747,81.337447 62.3887805,81.2775758 62.5252907,81.337447 L65.477188,82.6420952 C65.6131522,82.7035993 65.6759469,82.8608973 65.6142443,82.9964239 C65.570561,83.0965722 65.4728197,83.1564434 65.3690719,83.1564434 M32.6191745,82.8418473 C32.4952232,82.8418473 32.3832848,82.7558505 32.3559828,82.630121 L31.6696093,79.4830721 C31.638485,79.3388369 31.7302198,79.1956903 31.8743747,79.1641218 C32.0212597,79.1341862 32.1637763,79.2250816 32.1954467,79.3693168 L32.8812741,82.5163656 C32.9140366,82.6606008 32.8223017,82.8042918 32.6754167,82.8353159 C32.6573974,82.8396702 32.6377399,82.8418473 32.6191745,82.8418473 M59.4630931,80.5455141 C59.4248703,80.5455141 59.3893776,80.5384384 59.3538849,80.5221099 L56.4003495,79.2174616 C56.2638393,79.1565019 56.2026827,78.9986596 56.2627472,78.8636772 C56.3244498,78.7265177 56.4844398,78.6666465 56.6171278,78.7259734 L59.5712092,80.0311659 C59.7077195,80.0921257 59.7688761,80.2505123 59.7088116,80.3854946 C59.6640362,80.4861871 59.5652028,80.5455141 59.4630931,80.5455141 M51.5869986,77.064275 C51.5498678,77.064275 51.5132831,77.056655 51.4766983,77.0414151 L49.1582085,76.0159844 C49.0828549,76.0508186 48.9938502,76.0486415 48.9168584,76.005643 C48.8567939,75.9718974 48.8125646,75.9169248 48.7934532,75.8548764 L44.0931328,73.7789781 C43.9571686,73.7180183 43.896012,73.5596317 43.9560765,73.4251936 C44.0172331,73.2880341 44.176131,73.2281629 44.3120952,73.2880341 L48.9769229,75.3497811 L50.3889848,72.8292029 C50.4621543,72.6985748 50.6265126,72.6533992 50.7559243,72.725789 C50.8858821,72.7981787 50.9317495,72.9620081 50.859126,73.0915477 L49.4705439,75.5685832 L51.6956608,76.5504711 C51.831625,76.6114309 51.8927815,76.7692732 51.832717,76.9047998 C51.7879417,77.0049481 51.6891083,77.064275 51.5869986,77.064275 M31.2464276,76.5477497 C31.1202921,76.5477497 31.0099918,76.4612086 30.9832358,76.3365676 L30.2963163,73.1906073 C30.265192,73.0452835 30.3563808,72.9026812 30.5010817,72.8711127 C30.6490588,72.839 30.7910294,72.9315282 30.8221538,73.0763077 L31.5074351,76.222268 C31.5401976,76.3670475 31.4479167,76.5101941 31.3032158,76.5417626 C31.2824663,76.5461168 31.264993,76.5477497 31.2464276,76.5477497 M95.2686357,75.1973816 C95.2495243,75.1973816 95.2315049,75.1952045 95.2129395,75.1919388 L87.3002602,73.5808588 C87.1555594,73.5514675 87.0610943,73.4088651 87.0900345,73.2646299 C87.1206128,73.1187619 87.2658597,73.025145 87.4078303,73.0550807 L95.3210556,74.6656164 C95.4663025,74.6960963 95.5618597,74.8370658 95.5307353,74.9818452 C95.5050714,75.1092076 95.3936791,75.1973816 95.2686357,75.1973816 M94.1705474,74.0456771 C94.1175814,74.0456771 94.0657075,74.0309815 94.019294,73.999413 L91.3496999,72.1853152 C91.2262946,72.1031283 91.1946242,71.9354889 91.2787145,71.8130251 C91.3628048,71.6894726 91.5304394,71.6600813 91.6527526,71.7422682 L94.3223467,73.5552774 C94.4446599,73.6390972 94.4763303,73.8061923 94.392786,73.9286561 C94.3414582,74.0048559 94.2557297,74.0456771 94.1705474,74.0456771 M82.0784707,72.5124297 C82.0609974,72.5124297 82.0429781,72.5113412 82.0249587,72.5075312 L78.8584673,71.8630992 C78.7137665,71.8331636 78.6193014,71.6916498 78.6482416,71.5468703 C78.6793659,71.400458 78.8224286,71.3079297 78.9665834,71.3362325 L82.1325288,71.9812087 C82.2777757,72.0111444 82.3727868,72.1526581 82.3416625,72.2974376 C82.3159985,72.4242557 82.2040602,72.5124297 82.0784707,72.5124297 M41.2493515,72.4966455 C41.2127668,72.4966455 41.1761821,72.4890255 41.1406894,72.472697 L38.187154,71.1685931 C38.0511898,71.107089 37.9900332,70.9487024 38.0500977,70.8148086 C38.1101622,70.6771048 38.2701522,70.6183222 38.4055703,70.6771048 L41.3591058,71.9828416 C41.4945239,72.0432571 41.5556805,72.2005551 41.495616,72.3360818 C41.4508407,72.4373186 41.3530993,72.4966455 41.2493515,72.4966455 M72.3114365,71.8103036 C72.2197016,71.8103036 72.1301509,71.762951 72.0793691,71.6791313 L70.4346937,68.9070939 C70.358248,68.7802758 70.4019313,68.6153578 70.5280667,68.5402467 C70.6569324,68.4645912 70.8218368,68.5065011 70.8977365,68.6338635 L72.5440499,71.4059008 C72.6194035,71.5332632 72.5762663,71.6981812 72.4490388,71.7738366 C72.4064476,71.7983294 72.358396,71.8103036 72.3114365,71.8103036 M75.7482181,71.22411 C75.7301988,71.22411 75.7121794,71.2224772 75.693068,71.2192115 L72.5282147,70.5736909 C72.3829678,70.5442996 72.2885027,70.4022415 72.3179889,70.257462 C72.3474752,70.1121382 72.4894458,70.0185214 72.6374229,70.0473685 L75.8022762,70.6923448 C75.946977,70.7228246 76.0408961,70.8643384 76.0114099,71.0096622 C75.9857459,71.1364803 75.8727155,71.22411 75.7482181,71.22411 M88.831359,70.4191143 C88.7794852,70.4191143 88.7270652,70.4038743 88.6801057,70.3723059 L86.0099655,68.5587523 C85.8860142,68.4760212 85.855982,68.3089261 85.9384341,68.1864622 C86.0230705,68.0634541 86.1917971,68.0335185 86.3124722,68.1162496 L88.9826124,69.9292589 C89.1065637,70.0125343 89.1365959,70.1796294 89.0535977,70.3010047 C89.0011778,70.3772044 88.9170875,70.4191143 88.831359,70.4191143 M52.1996566,70.4174814 C52.1559733,70.4174814 52.1101058,70.4065958 52.0686067,70.3837358 C51.9375569,70.3113461 51.8922355,70.1469724 51.964859,70.0179771 L53.539641,67.2062071 C53.6122645,67.0766676 53.7760767,67.031492 53.9054885,67.1027932 C54.0359922,67.1762715 54.0834978,67.3390124 54.0092362,67.4680076 L52.4339081,70.2803219 C52.3853105,70.3684959 52.2935756,70.4174814 52.1996566,70.4174814 M69.4179655,69.935246 C69.3994001,69.935246 69.3813808,69.9336132 69.3644535,69.9303475 L61.449044,68.3192675 C61.3032511,68.2893319 61.2093321,68.1478181 61.2388183,68.0024943 C61.2677584,67.8571705 61.4130053,67.7646423 61.5571601,67.792945 L69.4709315,69.404025 C69.6161784,69.4334164 69.7106435,69.5749301 69.6817033,69.7207982 C69.6544012,69.847072 69.5424628,69.935246 69.4179655,69.935246 M35.3428267,69.8851719 C35.3056959,69.8851719 35.2685651,69.8786405 35.2330725,69.862312 L32.2800831,68.5571195 C32.1435728,68.496704 32.0824162,68.3388617 32.1430268,68.2027907 C32.2041834,68.0667198 32.3636273,68.0068486 32.4995915,68.0661755 L35.4514888,69.3719123 C35.587453,69.4328721 35.6486096,69.5901701 35.5879991,69.7267853 C35.5437698,69.8269335 35.4449364,69.8851719 35.3428267,69.8851719 M29.4133681,68.1570709 C29.2899629,68.1570709 29.1785705,68.0705298 29.1512685,67.9453445 L27.7353843,61.4569375 L27.157673,61.3399165 C27.011334,61.3105252 26.917961,61.1679228 26.9469012,61.0231434 C26.9774795,60.8778196 27.1221804,60.7831142 27.2652431,60.8135941 L27.610341,60.8838067 L27.4339697,60.0782667 C27.4028454,59.9334872 27.4945803,59.7903406 27.6387351,59.7598607 C27.7861661,59.7288365 27.9286828,59.8208205 27.9603532,59.9645114 L28.1864141,61.0019163 L30.4295503,61.4574818 C30.5758893,61.4874174 30.6698083,61.6283869 30.6408682,61.774255 C30.6108359,61.920123 30.4666811,62.0137398 30.3236184,61.9843485 L28.3114575,61.5745028 L29.6771059,67.8315892 C29.7087763,67.9758244 29.6170414,68.118971 29.4717945,68.1499952 C29.4526831,68.1543495 29.4330256,68.1570709 29.4133681,68.1570709 M56.2278006,67.2508384 C56.2092352,67.2508384 56.1923079,67.2492055 56.1737425,67.2459398 L53.0083432,66.6015078 C52.8625503,66.5715722 52.7686312,66.4300585 52.7981174,66.2858232 C52.8281497,66.1399552 52.9723045,66.0457941 53.1164593,66.0751854 L56.2813126,66.7196174 C56.4260134,66.749553 56.5204785,66.8916111 56.4909923,67.0358463 C56.4653284,67.163753 56.3522979,67.2508384 56.2278006,67.2508384 M27.4667322,66.4044771 C27.4306935,66.4044771 27.3941087,66.3974014 27.357524,66.3816172 L19.9734124,63.1180916 C19.8379942,63.0582204 19.7762916,62.9003781 19.8374482,62.7643072 C19.8975127,62.6287805 20.0558645,62.5689093 20.1929208,62.6276919 L27.5759404,65.8912175 C27.7113585,65.951633 27.7730612,66.1100196 27.7124506,66.2455462 C27.6682213,66.3456945 27.5699339,66.4044771 27.4667322,66.4044771 M69.0204477,66.2684062 C68.9287128,66.2684062 68.8391621,66.2205092 68.7889263,66.1366895 L67.1420669,63.3651965 C67.0667132,63.2372898 67.1093044,63.0729161 67.237078,62.9978049 C67.3643055,62.923238 67.5297559,62.9646036 67.6062017,63.0914217 L69.2519691,65.8629148 C69.3273227,65.9902772 69.2852776,66.1551951 69.1569579,66.2308506 C69.1149128,66.2558876 69.0668612,66.2684062 69.0204477,66.2684062 M49.898094,65.9625187 C49.8800746,65.9625187 49.8615092,65.9608858 49.8429439,65.9570758 L46.6780906,65.3131881 C46.5317516,65.2832525 46.4383786,65.1411945 46.4678648,64.996415 C46.497351,64.8505469 46.6409598,64.7574744 46.7851146,64.7868657 L49.951606,65.4307534 C50.0957608,65.4601448 50.1896799,65.6027471 50.1607397,65.7475266 C50.1345297,65.874889 50.0220453,65.9625187 49.898094,65.9625187 M81.7115312,65.5836972 C81.6591113,65.5836972 81.6061453,65.5679129 81.5602779,65.5368888 L74.8854734,61.0035491 C74.7620682,60.9197294 74.7314899,60.7526343 74.8144881,60.6307147 C74.8980324,60.5077066 75.066213,60.4772267 75.1885262,60.5599579 L81.8627846,65.0938418 C81.9861898,65.1771172 82.0167681,65.3442123 81.9337699,65.4661319 C81.881896,65.5428759 81.7967136,65.5836972 81.7115312,65.5836972 M55.3508588,64.7944857 C55.3060835,64.7944857 55.2607621,64.7830557 55.2187169,64.7601958 C55.0898512,64.6878061 55.0428917,64.5245209 55.1155152,64.3949814 L59.0552006,57.3661006 C59.127278,57.2365611 59.2905442,57.1908412 59.421048,57.263231 C59.5515518,57.3350764 59.5974192,57.4983616 59.5253418,57.6284454 L55.5856564,64.6573262 C55.5365127,64.7455001 55.4453239,64.7944857 55.3508588,64.7944857 M43.5667493,64.6736547 C43.5481839,64.6736547 43.5307106,64.6725661 43.5121452,64.6687561 L35.5983739,63.0576761 C35.453127,63.0282848 35.3586619,62.8862267 35.3892402,62.740903 C35.4187264,62.5966678 35.5579668,62.5003295 35.7053979,62.531898 L43.6197153,64.142978 C43.7649622,64.171825 43.8588812,64.3138831 43.829941,64.4586626 C43.8042771,64.586025 43.6912466,64.6736547 43.5667493,64.6736547 M17.1290851,61.8368476 C17.0935925,61.8368476 17.0559156,61.8292276 17.020423,61.8134434 L14.0668875,60.5082509 C13.9309233,60.4472911 13.8697667,60.2894488 13.9298312,60.1533779 C13.9904418,60.0178512 14.1493397,59.9568914 14.2858499,60.0173069 L17.2404775,61.3224994 C17.3758956,61.3834592 17.4365062,61.5418458 17.3758956,61.6768282 C17.3316663,61.7775207 17.2328329,61.8368476 17.1290851,61.8368476 M65.7283669,60.7259644 C65.636086,60.7259644 65.5470813,60.6786117 65.4968455,60.5942477 L61.381881,53.667148 C61.3054353,53.5397856 61.3480265,53.3743234 61.4763461,53.2992122 C61.6046657,53.2235568 61.768478,53.2660109 61.8460158,53.3933733 L65.9598882,60.320473 C66.0352419,60.4478354 65.9931967,60.6127534 65.8654232,60.6884088 C65.8222859,60.7139902 65.7742343,60.7259644 65.7283669,60.7259644 M24.0468778,60.7003831 C24.0288584,60.7003831 24.010293,60.6998388 23.9917276,60.6960288 L20.8268744,60.0515968 C20.6810814,60.0211169 20.5871624,59.8796031 20.6161026,59.7348236 C20.6461348,59.5894999 20.7908357,59.4953388 20.9333523,59.5252744 L24.0987517,60.1697064 C24.2450906,60.1990977 24.3395557,60.3411558 24.3106156,60.485391 C24.2833135,60.6127534 24.1719212,60.7003831 24.0468778,60.7003831 M17.7155331,59.4126076 C17.6986058,59.4126076 17.6794944,59.4109748 17.6620211,59.4071648 L9.74715765,57.7966291 C9.60136471,57.7672378 9.50853776,57.6251797 9.53802397,57.4793116 C9.56751018,57.3345322 9.71166498,57.2398268 9.85527375,57.2703067 L17.7690451,58.8808424 C17.914292,58.9113223 18.0087571,59.0528361 17.9792709,59.1976155 C17.9530609,59.324978 17.8411225,59.4126076 17.7155331,59.4126076 M72.3676787,59.2373483 C72.3147127,59.2373483 72.2622928,59.221564 72.2164253,59.1899956 L69.5462851,57.3758977 C69.4223338,57.2937109 69.3912095,57.1260715 69.4752998,57.0041519 C69.5593901,56.8805995 69.7275707,56.8512082 69.8487918,56.933395 L72.518932,58.7469486 C72.6417912,58.830224 72.6734616,58.9967748 72.5893713,59.1192387 C72.5374974,59.1959827 72.452315,59.2373483 72.3676787,59.2373483 M11.2231063,59.2259183 C11.1870676,59.2259183 11.1499368,59.2182983 11.1144442,59.2030584 L8.16090872,57.8978659 C8.02439848,57.8379947 7.96269585,57.6785195 8.0233064,57.5435371 C8.08446298,57.4074662 8.24226882,57.3470507 8.37877905,57.4074662 L11.3323145,58.7115701 C11.4671866,58.7730742 11.5299813,58.9309165 11.4688247,59.0664432 C11.4245954,59.1665914 11.325762,59.2259183 11.2231063,59.2259183 M27.010242,57.1424 C26.8868367,57.1424 26.7759904,57.0569474 26.7481423,56.9317622 L26.0612228,53.7852576 C26.0290064,53.6415667 26.1218333,53.4978758 26.2676263,53.465763 C26.4139653,53.4336503 26.5559359,53.5261785 26.5870602,53.670958 L27.2739797,56.8174626 C27.3056501,56.9622421 27.2139152,57.1053887 27.0686683,57.1364129 C27.0490109,57.1407671 27.0298994,57.1424 27.010242,57.1424 M67.0279443,55.6102411 C66.9760704,55.6102411 66.9214663,55.5944569 66.8755989,55.5634327 L64.2065508,53.7504235 C64.0842376,53.667148 64.0520212,53.4995086 64.1344734,53.3775891 C64.2196558,53.2540366 64.3883824,53.224101 64.5096035,53.3068322 L67.1786516,55.1198415 C67.3020569,55.2031169 67.3331812,55.370212 67.2496369,55.4926758 C67.197763,55.5688756 67.1136727,55.6102411 67.0279443,55.6102411 M61.915363,53.0798658 C61.8705876,53.0798658 61.8252662,53.0689802 61.7837671,53.0461202 C61.6543554,52.9731862 61.6073959,52.8099011 61.6794733,52.6809058 L63.2558935,49.8696801 C63.3285169,49.739052 63.4928753,49.694965 63.6217409,49.7657219 C63.7522447,49.8381116 63.7986582,50.001941 63.7260348,50.1314806 L62.1512527,52.9427063 C62.1004709,53.0308803 62.0098281,53.0798658 61.915363,53.0798658 M25.636949,50.8499352 C25.5135437,50.8499352 25.4021514,50.7633941 25.3743033,50.6382088 L24.6884759,47.4917042 C24.6568055,47.3463805 24.7485404,47.2037781 24.8932412,47.1727539 C25.0406723,47.1417298 25.1820969,47.2331694 25.2132212,47.3768604 L25.9012328,50.5239092 C25.9323571,50.6686887 25.8400762,50.811291 25.6953754,50.8428595 C25.6746258,50.8472138 25.6571525,50.8499352 25.636949,50.8499352 M59.9081165,50.7737354 C59.8556966,50.7737354 59.8021846,50.7590398 59.7568632,50.726927 L53.0815127,46.1935874 C52.9591995,46.1108563 52.9275291,45.9437612 53.0105273,45.8218416 C53.0962558,45.6988335 53.2627983,45.6678093 53.3845654,45.7510847 L60.0593698,50.28388 C60.1822291,50.3671555 60.2133534,50.5347949 60.1298091,50.6572587 C60.0784813,50.7334584 59.9927528,50.7737354 59.9081165,50.7737354 M58.8700927,49.1795282 C58.7778118,49.1795282 58.6893531,49.1321756 58.6391174,49.0483559 L56.9922579,46.2774071 C56.9174503,46.1489561 56.9594954,45.9845824 57.086723,45.9094713 C57.2155886,45.8338158 57.379947,45.8757257 57.4563927,46.0036324 L59.1021601,48.7745811 C59.1780598,48.9024878 59.1360146,49.0674058 59.007695,49.1419727 C58.9645578,49.1680983 58.9175982,49.1795282 58.8700927,49.1795282 M65.0654732,47.4574144 C65.0212439,47.4574144 64.9759225,47.4465287 64.9349694,47.4231245 C64.8050117,47.3507347 64.7585982,47.1879939 64.8306756,47.0573658 L66.4070958,44.24614 C66.4797192,44.1166005 66.6446236,44.0714249 66.7734892,44.1432704 C66.9029009,44.2156602 66.9493144,44.3789453 66.877237,44.5090291 L65.3008168,47.3197106 C65.2516731,47.4073403 65.1604843,47.4574144 65.0654732,47.4574144 M50.5637179,44.4273865 C50.511298,44.4273865 50.458878,44.4126909 50.4130106,44.3811224 L47.7423244,42.5675689 C47.6189191,42.4848377 47.5877948,42.3171983 47.670793,42.1947345 C47.7554293,42.0717263 47.9225179,42.0412464 48.044831,42.1239776 L50.7138792,43.9369869 C50.8383765,44.0202623 50.8689548,44.1879017 50.7854105,44.3098212 C50.7335366,44.3865653 50.6489003,44.4273865 50.5637179,44.4273865 M55.5780118,43.6376308 C55.486823,43.6376308 55.3967263,43.5902781 55.3464905,43.5059141 L53.7007231,40.7349654 C53.6242774,40.6065144 53.6674146,40.442685 53.7951882,40.3670295 C53.9224157,40.2913741 54.0878661,40.3338282 54.1643119,40.4611906 L55.8095332,43.2321394 C55.886525,43.3595018 55.8439338,43.524964 55.7145221,43.6000752 C55.673023,43.6262008 55.6249714,43.6376308 55.5780118,43.6376308 M97.7323724,43.4601943 C97.7088926,43.4601943 97.686505,43.4574728 97.6641173,43.4514857 L94.5358487,42.6486671 C94.39224,42.6122001 94.3048734,42.4657878 94.3420042,42.3215526 C94.379681,42.178406 94.5249279,42.0913205 94.6701748,42.1294204 L97.7989894,42.9311504 C97.9420521,42.968706 98.0288726,43.1145741 97.9911958,43.2577207 C97.9617096,43.3796403 97.8514093,43.4601943 97.7323724,43.4601943 M23.8066198,42.4587121 C23.6821224,42.4587121 23.570184,42.3716267 23.543428,42.2469857 L21.8261293,34.3804522 C21.7944589,34.2351284 21.8867398,34.0930704 22.0325328,34.0609576 C22.1783257,34.0288449 22.3208424,34.1219174 22.3514207,34.2661526 L24.0692655,42.1332304 C24.1003898,42.2774656 24.0086549,42.4206122 23.862862,42.4516364 C23.8437505,42.4554464 23.8257312,42.4587121 23.8066198,42.4587121 M91.4741972,41.8551014 C91.4518095,41.8551014 91.4299679,41.85238 91.4064881,41.8463928 L88.2771275,41.0441185 C88.1335187,41.0071073 88.0472443,40.8606949 88.084375,40.7164597 C88.1215058,40.5733131 88.2672988,40.4884048 88.4119996,40.5243275 L91.5408142,41.3271461 C91.684969,41.3636131 91.7717895,41.5100255 91.7346587,41.6537164 C91.7040804,41.7750917 91.5937802,41.8551014 91.4741972,41.8551014 M68.2166754,41.8344186 C68.1735382,41.8344186 68.1271247,41.8229886 68.0856256,41.8001287 C67.9556679,41.7282833 67.9098004,41.5644538 67.9818778,41.4349143 L70.7246415,36.5423474 L68.9827709,36.0954904 C68.8408002,36.0579348 68.7534337,35.9120668 68.7900184,35.7689201 C68.8276953,35.6246849 68.9718501,35.5381438 69.117643,35.5746108 L70.9960238,36.0568462 L71.9210172,34.4065778 C71.9930946,34.276494 72.159091,34.2302299 72.2868646,34.3026196 C72.4173684,34.3750094 72.4637819,34.5388388 72.3917045,34.6689226 L71.5360583,36.1950943 L72.2475497,36.3774294 C72.3900663,36.414985 72.4779789,36.560853 72.4397561,36.704544 C72.4020792,36.8482349 72.2579244,36.934776 72.1126775,36.898309 L71.2641299,36.6800512 L68.4531112,41.6972591 C68.4028754,41.7848888 68.3116866,41.8344186 68.2166754,41.8344186 M45.2239835,40.8008237 C45.1715636,40.8008237 45.1191437,40.7855838 45.0716381,40.7540153 L42.40259,38.9404617 C42.2791848,38.8571863 42.2480604,38.6900912 42.3316047,38.5681716 C42.415695,38.4446192 42.5838756,38.4146836 42.7050967,38.4974147 L45.3757829,40.310424 C45.4986421,40.3942437 45.5292204,40.5613388 45.4467683,40.6832584 C45.3943483,40.7600024 45.310258,40.8008237 45.2239835,40.8008237 M85.216022,40.2500085 C85.1941803,40.2500085 85.1712466,40.2472871 85.1488589,40.2413 L77.3273685,38.2350699 C77.1832137,38.1980587 77.0963932,38.0516463 77.1329779,37.9084997 C77.1706548,37.7648088 77.3164477,37.6777234 77.4616946,37.7147347 L85.2837311,39.721509 C85.4273398,39.7590645 85.5141603,39.9054769 85.4770296,40.0480792 C85.4448131,40.1694545 85.336697,40.2500085 85.216022,40.2500085 M52.2875691,38.0946447 C52.1952882,38.0946447 52.1051915,38.0483806 52.0549557,37.9640166 L47.9405372,31.0358284 C47.8646375,30.908466 47.9077748,30.743548 48.0350023,30.6684368 C48.1627759,30.5916928 48.3276802,30.6346912 48.404126,30.7625979 L52.5201826,37.6896976 C52.5938981,37.81706 52.551853,37.9830666 52.4235333,38.0581777 C52.3803961,38.0837591 52.3334366,38.0946447 52.2875691,38.0946447 M38.1047018,35.9648623 C38.0522818,35.9648623 37.9993159,35.9496223 37.9534484,35.9180539 L31.2780979,31.3847143 C31.1552387,31.3014388 31.1230223,31.134888 31.2065666,31.0118799 C31.2906569,30.8899603 31.4604756,30.8589361 31.5811507,30.9416673 L38.2554091,35.4750069 C38.3788143,35.5582823 38.4099387,35.7248331 38.3263944,35.847297 C38.2745205,35.924041 38.1898842,35.9648623 38.1047018,35.9648623 M65.9227575,35.3013804 C65.8998237,35.3013804 65.8774361,35.2975704 65.8550484,35.2926718 L62.7256878,34.4909418 C62.582079,34.4539305 62.4952585,34.3069739 62.5318432,34.163283 C62.5700661,34.0201363 62.715313,33.9325066 62.8600138,33.9700622 L65.9893744,34.7728808 C66.1335293,34.8093478 66.2203498,34.9563044 66.1821269,35.1005396 C66.1515486,35.2202821 66.0417944,35.3013804 65.9227575,35.3013804 M59.6640362,33.6957432 C59.6427406,33.6957432 59.6203529,33.6930218 59.5974192,33.6875789 L51.7764748,31.6813489 C51.63232,31.6443376 51.5449535,31.4979253 51.5820843,31.3547787 C51.619215,31.211632 51.7644619,31.123458 51.9102549,31.1615579 L59.7317453,33.1672436 C59.874808,33.2047992 59.9616285,33.3506673 59.9239517,33.4938139 C59.8939194,33.6157335 59.7847112,33.6957432 59.6640362,33.6957432 M21.4040396,31.4440412 C21.2789963,31.4440412 21.1676039,31.3585886 21.1403019,31.2334034 L20.4533824,28.0868988 C20.4211659,27.9421193 20.5145389,27.799517 20.6592398,27.76686 C20.8028486,27.7374686 20.9480954,27.8272755 20.9786737,27.9720549 L21.6655932,31.1191038 C21.6978097,31.2638833 21.6060748,31.4070299 21.4608279,31.4385984 C21.4406244,31.4424083 21.4215129,31.4440412 21.4040396,31.4440412 M46.6278548,30.3522079 C46.6060132,30.3522079 46.5825334,30.3500308 46.5612378,30.3440437 L43.4318772,29.5412251 C43.2877224,29.5042138 43.2009019,29.3583457 43.2385787,29.2146548 C43.2762555,29.0709639 43.4215024,28.9844228 43.5667493,29.0214341 L46.6955639,29.8237084 C46.8391726,29.8607197 46.9254471,30.0065877 46.8883163,30.1508229 C46.857738,30.2716539 46.7474378,30.3522079 46.6278548,30.3522079 M74.7811796,30.120343 C74.7369503,30.120343 74.692721,30.1089131 74.6512219,30.0855089 C74.5201721,30.0136634 74.4748507,29.8503783 74.5469281,29.7208387 L76.1228022,26.9090687 C76.1954257,26.7806177 76.359784,26.7343536 76.4897417,26.8061991 C76.6202455,26.8785888 76.6655669,27.0413297 76.5929435,27.1703249 L75.0170693,29.9826392 C74.9673796,30.0702689 74.8756447,30.120343 74.7811796,30.120343 M28.7597571,29.6185134 C28.7073372,29.6185134 28.6549173,29.6032734 28.6090498,29.571705 L25.9389096,27.7581514 C25.8165965,27.674876 25.78438,27.5077809 25.8673783,27.385317 C25.9525607,27.2633975 26.1218333,27.2329176 26.2419624,27.3145601 L28.9115565,29.1281137 C29.0338697,29.2119334 29.0660861,29.37794 28.9819958,29.5014924 C28.9301219,29.5766035 28.8454856,29.6185134 28.7597571,29.6185134 M40.3702256,28.747115 C40.348384,28.747115 40.3254503,28.7449379 40.3030626,28.7389508 L37.1731559,27.9361322 C37.0306392,27.8996652 36.9438187,27.7532529 36.9804035,27.6084734 C37.0164422,27.465871 37.1622351,27.3787856 37.308028,27.4163412 L40.4379347,28.2197041 C40.5815435,28.2561711 40.6672719,28.4025834 40.6312332,28.5457301 C40.6001089,28.6671053 40.4909007,28.747115 40.3702256,28.747115 M34.1120504,27.1425665 C34.0902088,27.1425665 34.0672751,27.1393008 34.0448874,27.1338579 L26.2228509,25.1276279 C26.0797882,25.0906166 25.9935137,24.94366 26.0290064,24.8005133 C26.0666832,24.6584553 26.2124761,24.5702813 26.357723,24.6078369 L34.1797595,26.6135226 C34.3233683,26.6510782 34.4101888,26.7969463 34.373058,26.9406372 C34.3424797,27.0620125 34.2327255,27.1425665 34.1120504,27.1425665 M45.429841,26.5498414 C45.3375601,26.5498414 45.2485554,26.503033 45.1977736,26.4175805 L43.5509141,23.6466317 C43.4755605,23.5192693 43.5186977,23.3543513 43.6475634,23.2786959 C43.7736988,23.2030404 43.9386032,23.2454946 44.016141,23.372857 L45.6608163,26.14435 C45.737262,26.2722567 45.6941248,26.4366304 45.5668973,26.5111973 C45.5226679,26.5373229 45.4762545,26.5498414 45.429841,26.5498414 M23.4205688,25.9919505 C23.3676028,25.9919505 23.3151829,25.9761663 23.2693155,25.9456864 L20.5986292,24.1315886 C20.47577,24.0483132 20.4440997,23.881218 20.52819,23.7582099 C20.5483935,23.7288186 20.5735114,23.7043258 20.6024515,23.6858202 L20.0105432,23.533965 L20.2928463,24.8255504 C20.3239707,24.9703299 20.2322358,25.1134765 20.0864428,25.145045 C19.9444722,25.1766134 19.7981332,25.085718 19.7670089,24.9403943 L19.3913327,23.2226347 C19.3722213,23.131195 19.4011615,23.0370339 19.4683245,22.9717198 C19.5354875,22.9069501 19.6315907,22.8835459 19.7211415,22.9047729 L21.1430321,23.2699873 C21.2877329,23.3069986 21.3734613,23.453411 21.3368766,23.5965576 C21.3041141,23.7217429 21.1850772,23.808284 21.0644022,23.7979426 L23.5718222,25.5010066 C23.6941353,25.584282 23.7258057,25.7513771 23.6422614,25.873841 C23.5909336,25.9511293 23.5057512,25.9919505 23.4205688,25.9919505 M77.933474,24.4962587 C77.8886986,24.4962587 77.8433772,24.4859173 77.8018781,24.4625131 C77.6719204,24.3906677 77.6249608,24.2279268 77.6981303,24.0983873 L79.2740045,21.2866172 C79.3460819,21.1559891 79.5115323,21.1108136 79.640944,21.1832033 C79.7703557,21.2550488 79.8156771,21.4188782 79.7435997,21.5484177 L78.1677255,24.3596435 C78.1196739,24.4472732 78.027939,24.4962587 77.933474,24.4962587 M23.6908591,23.0201611 C23.5548949,23.0201611 23.4391342,22.9178357 23.4249371,22.7790434 C23.409102,22.6320868 23.516126,22.5003701 23.6646491,22.4851301 L31.6985495,21.6610845 C31.8350597,21.6496545 31.9781224,21.7536127 31.9934116,21.9016579 C32.0081547,22.0491588 31.9016767,22.1803312 31.7542456,22.1955712 L23.7192532,23.0190725 C23.7099705,23.0201611 23.7012339,23.0201611 23.6908591,23.0201611 M34.9398485,21.867368 C34.8044303,21.867368 34.6864855,21.7650427 34.6728345,21.6267946 C34.6580914,21.479838 34.7645693,21.347577 34.9136385,21.3323371 L38.1270895,21.0035897 C38.2641457,20.988894 38.4066624,21.0950294 38.4214055,21.2430745 C38.4361486,21.3905754 38.3296706,21.5217478 38.1816935,21.5369878 L34.9671505,21.8662795 C34.9584139,21.8668238 34.9485851,21.867368 34.9398485,21.867368 M41.3672964,21.2087847 C41.2313322,21.2087847 41.1144794,21.1064593 41.1008284,20.9692998 C41.0849932,20.8212546 41.1925633,20.6889936 41.3405404,20.6737537 L41.7609919,20.6307553 L40.2604714,18.1047342 C40.1845717,17.9773718 40.2271629,17.8113653 40.3549365,17.7367984 C40.4827101,17.6605987 40.6476144,17.7030528 40.7240602,17.8309595 L42.3507161,20.5703398 L44.5534453,20.3450063 C44.6894095,20.3313992 44.8330182,20.436446 44.8483074,20.5839469 C44.8635965,20.7319921 44.7565725,20.8631645 44.6091414,20.8784044 L41.3945984,21.2076961 C41.3858618,21.2082404 41.3771251,21.2087847 41.3672964,21.2087847 M49.9368629,20.3313992 C49.8014447,20.3313992 49.685138,20.2285296 49.6703949,20.0902815 C49.6556518,19.9427806 49.7626758,19.8105196 49.911199,19.7963682 L57.9450993,18.9723226 C58.0810635,18.9603484 58.2246723,19.0648508 58.2399614,19.2118075 C58.2552506,19.3593084 58.1476805,19.4915693 57.9991574,19.506265 L49.965257,20.3297664 C49.9559743,20.3308549 49.9477837,20.3313992 49.9368629,20.3313992 M61.1853063,19.1786062 C61.048796,19.1786062 60.9324893,19.0762808 60.9172002,18.938577 C60.9030031,18.7905318 61.0105732,18.6588151 61.1580042,18.6430309 L64.3730933,18.3142835 C64.5106956,18.3023093 64.6532123,18.4062675 64.6679554,18.5537684 C64.6826985,18.7012693 64.5762205,18.8335302 64.4271513,18.8482259 L61.2142464,19.1775176 C61.2044177,19.1780619 61.195135,19.1786062 61.1853063,19.1786062 M81.0846762,18.8743515 C81.0393548,18.8743515 80.9934874,18.8634658 80.9530804,18.8406059 C80.8231226,18.7676719 80.7761631,18.6043868 80.8493326,18.4748472 L81.627987,17.085835 L76.2118069,17.6410045 C76.0742046,17.653523 75.9322339,17.5490205 75.9163987,17.4015196 C75.9011096,17.2534744 76.0075876,17.1217577 76.1561107,17.1070621 L82.0872074,16.4990971 C82.188225,16.4903886 82.2848742,16.5361084 82.3405704,16.6188395 C82.3957205,16.7026592 82.3995428,16.8098831 82.3498531,16.8969685 L81.3194738,18.737192 C81.2703301,18.8248217 81.1780492,18.8743515 81.0846762,18.8743515 M67.6127542,18.5200228 C67.477336,18.5200228 67.3610293,18.4176974 67.3457401,18.2799936 C67.3315431,18.1324927 67.4380211,18.0002318 67.5870902,17.9844475 L70.8005412,17.6557001 C70.9354133,17.6410045 71.0795681,17.7476841 71.0948572,17.895185 C71.1096003,18.0426859 71.0031224,18.1744026 70.8540532,18.1896425 L67.6411483,18.5189342 C67.6324116,18.5194785 67.6225829,18.5200228 67.6127542,18.5200228 M38.8462254,15.4638693 C38.7539445,15.4638693 38.6649398,15.4176052 38.6136119,15.3332412 L34.4991934,8.40505296 C34.4238398,8.27769056 34.465885,8.11331685 34.5936585,8.03766141 C34.7214321,7.96200596 34.8868825,8.00391581 34.9633282,8.13127822 L39.0782928,15.0589222 C39.1531004,15.1868289 39.1105092,15.3512026 38.9827356,15.4274023 C38.9412365,15.4529837 38.8931849,15.4638693 38.8462254,15.4638693" id="Fill-1" fill="#FFFFFF"></path>
                <path d="M31,25.5 C31,31.2990535 26.2989313,36 20.499727,36 C14.6999766,36 10,31.2990535 10,25.5 C10,19.7014925 14.6999766,15 20.499727,15 C26.2989313,15 31,19.7014925 31,25.5" id="Fill-3" fill="#1F2454"></path>
                <path d="M91,17.500273 C91,23.2989313 86.2994773,28 80.499727,28 C74.7005227,28 70,23.2989313 70,17.500273 C70,11.7010687 74.7005227,7 80.499727,7 C86.2994773,7 91,11.7010687 91,17.500273" id="Fill-5" fill="#DE1C26"></path>
                <path d="M46,96.9997258 C46,101.970329 41.9691099,106 36.9989033,106 C32.0286968,106 28,101.970329 28,96.9997258 C28,92.0291224 32.0286968,88 36.9989033,88 C41.9691099,88 46,92.0291224 46,96.9997258" id="Fill-7" fill="#F7B000"></path>
                <path d="M23,87.0010675 C23,89.7609949 20.7624766,92 18.0002669,92 C15.2385909,92 13,89.7609949 13,87.0010675 C13,84.2395389 15.2385909,82 18.0002669,82 C20.7624766,82 23,84.2395389 23,87.0010675" id="Fill-9" fill="#00ADE3"></path>
                <path d="M14,75 C14,77.7615286 11.7612896,80 8.99893242,80 C6.23764279,80 4,77.7615286 4,75 C4,72.2390051 6.23764279,70 8.99893242,70 C11.7612896,70 14,72.2390051 14,75" id="Fill-11" fill="#731F80"></path>
                <path d="M60,101.999733 C60,104.761114 57.7615286,107 55,107 C52.2379377,107 50,104.761114 50,101.999733 C50,99.2394193 52.2379377,97 55,97 C57.7615286,97 60,99.2394193 60,101.999733" id="Fill-13" fill="#E6426B"></path>
                <path d="M74,100.999733 C74,103.761114 71.7604611,106 68.9994663,106 C66.2384714,106 64,103.761114 64,100.999733 C64,98.2388856 66.2384714,96 68.9994663,96 C71.7604611,96 74,98.2388856 74,100.999733" id="Fill-15" fill="#33A8A6"></path>
                <g id="Group-19" transform="translate(97.000000, 54.000000)">
                    <mask id="mask-2" fill="white">
                        <use xlink:href="#path-1"></use>
                    </mask>
                    <g id="Clip-18"></g>
                    <path d="M9.94963158,5.46348 C9.94963158,8.31028 7.74173684,10.61643 5.01805263,10.61643 C2.29542105,10.61643 0.0880526316,8.31028 0.0880526316,5.46348 C0.0880526316,2.61888 2.29542105,0.31163 5.01805263,0.31163 C7.74173684,0.31163 9.94963158,2.61888 9.94963158,5.46348" id="Fill-17" fill="#E8598F" mask="url(#mask-2)"></path>
                </g>
                <path d="M106,44 C106,46.7601665 103.761823,49 100.999466,49 C98.2376428,49 96,46.7601665 96,44 C96,41.2398335 98.2376428,39 100.999466,39 C103.761823,39 106,41.2398335 106,44" id="Fill-20" fill="#CFC200"></path>
                <path d="M101,30.0008006 C101,32.7611144 98.7620623,35 95.9994663,35 C93.2379377,35 91,32.7611144 91,30.0008006 C91,27.2394193 93.2379377,25 95.9994663,25 C98.7620623,25 101,27.2394193 101,30.0008006" id="Fill-22" fill="#3BA387"></path>
                <path d="M69,5.99973315 C69,8.76058067 66.7620623,11 64.0010675,11 C61.2395389,11 59,8.76058067 59,5.99973315 C59,3.23941933 61.2395389,1 64.0010675,1 C66.7620623,1 69,3.23941933 69,5.99973315" id="Fill-24" fill="#009EDE"></path>
                <g id="Group-28" transform="translate(44.000000, 0.000000)">
                    <mask id="mask-4" fill="white">
                        <use xlink:href="#path-3"></use>
                    </mask>
                    <g id="Clip-27"></g>
                    <path d="M10.49675,5.30959 C10.49675,8.15474 8.19115,10.46144 5.34545,10.46144 C2.5003,10.46144 0.19305,8.15474 0.19305,5.30959 C0.19305,2.46389 2.5003,0.15664 5.34545,0.15664 C8.19115,0.15664 10.49675,2.46389 10.49675,5.30959" id="Fill-26" fill="#5C8A9E" mask="url(#mask-4)"></path>
                </g>
                <path d="M40,8.99946627 C40,11.7615286 37.7615286,14 35,14 C32.2390051,14 30,11.7615286 30,8.99946627 C30,6.23900512 32.2390051,4 35,4 C37.7615286,4 40,6.23900512 40,8.99946627" id="Fill-29" fill="#1A1A5A"></path>
                <path d="M12,40.0008006 C12,42.7616481 9.76128963,45 6.99893242,45 C4.23817658,45 2,42.7616481 2,40.0008006 C2,37.2394193 4.23817658,35 6.99893242,35 C9.76128963,35 12,37.2394193 12,40.0008006" id="Fill-31" fill="#FEE101"></path>
                <path d="M104,74.4994435 C104,78.6415003 100.642181,82 96.4991653,82 C92.3572621,82 89,78.6415003 89,74.4994435 C89,70.3579432 92.3572621,67 96.4991653,67 C100.642181,67 104,70.3579432 104,74.4994435" id="Fill-33" fill="#757373"></path>
                <path d="M15,57.4994435 C15,61.6420568 11.6433528,65 7.50083485,65 C3.35831695,65 0,61.6420568 0,57.4994435 C0,53.3579432 3.35831695,50 7.50083485,50 C11.6433528,50 15,53.3579432 15,57.4994435" id="Fill-35" fill="#B5975B"></path>
                <path d="M92,89.5002782 C92,93.6416249 88.6424888,97 84.4997217,97 C80.3575112,97 77,93.6416249 77,89.5002782 C77,85.3589316 80.3575112,82 84.4997217,82 C88.6424888,82 92,85.3589316 92,89.5002782" id="Fill-37" fill="#E91E22"></path>
            </g>
        </g>
    </g>
</svg>