<?xml version="1.0" encoding="UTF-8"?>
<svg width="66px" height="56px" viewBox="0 0 66 56" version="1.1" xmlns="http://www.w3.org/2000/svg" xmlns:xlink="http://www.w3.org/1999/xlink">
    <!-- Generator: Sketch 54.1 (76490) - https://sketchapp.com -->
    <title>icon/sicruezza</title>
    <desc>Created with Sketch.</desc>
    <defs>
        <polygon id="path-1" points="0.213712719 0.7622 57.4491295 0.7622 57.4491295 1.625 0.213712719 1.625"></polygon>
        <polygon id="path-3" points="0.20755 0.6479375 3.7925 0.6479375 3.7925 1.5104375 0.20755 1.5104375"></polygon>
        <polygon id="path-5" points="0.000205938538 0.316593548 57.4491295 0.316593548 57.4491295 47.6848516 0.000205938538 47.6848516"></polygon>
    </defs>
    <g id="icon/sicruezza" stroke="none" stroke-width="1" fill="none" fill-rule="evenodd">
        <g id="sicurezza" transform="translate(4.000000, 0.000000)">
            <rect id="Rectangle" fill="#FFFFFF" fill-rule="nonzero" x="10" y="8" width="21" height="38"></rect>
            <rect id="Rectangle" fill="#A7E1C7" fill-rule="nonzero" x="29" y="2" width="15" height="45"></rect>
            <rect id="Rectangle" fill="#FFFFFF" fill-rule="nonzero" x="44" y="15" width="10" height="32"></rect>
            <g id="Group-3" transform="translate(0.000000, 54.000000)">
                <g id="Fill-1-Clipped">
                    <mask id="mask-2" fill="white">
                        <use xlink:href="#path-1"></use>
                    </mask>
                    <g id="path-1"></g>
                    <path d="M56.8571077,0.7622 L0.805786015,0.7622 C0.478858586,0.7622 0.213712719,0.9557 0.213712719,1.19345 C0.213712719,1.431575 0.478858586,1.625075 0.805786015,1.625075 L56.8571077,1.625075 C57.1840351,1.625075 57.449181,1.431575 57.449181,1.19345 C57.449181,0.9557 57.1840351,0.7622 56.8571077,0.7622" id="Fill-1" fill="#1D1D1B" fill-rule="nonzero" mask="url(#mask-2)"></path>
                </g>
            </g>
            <path d="M0.618279569,51.125 C0.27688172,51.125 0,51.2929348 0,51.5 C0,51.7070652 0.27688172,51.875 0.618279569,51.875 L4.38172043,51.875 C4.72311828,51.875 5,51.7070652 5,51.5 C5,51.2929348 4.72311828,51.125 4.38172043,51.125 L0.618279569,51.125 Z" id="Fill-4" fill="#1D1D1B" fill-rule="nonzero"></path>
            <g id="Group-8" transform="translate(53.000000, 50.000000)">
                <g id="Fill-6-Clipped">
                    <mask id="mask-4" fill="white">
                        <use xlink:href="#path-3"></use>
                    </mask>
                    <g id="path-3"></g>
                    <path d="M3.21755,0.6479375 L0.78255,0.6479375 C0.46505,0.6479375 0.20755,0.8410625 0.20755,1.0791875 C0.20755,1.3173125 0.46505,1.5104375 0.78255,1.5104375 L3.21755,1.5104375 C3.53505,1.5104375 3.79255,1.3173125 3.79255,1.0791875 C3.79255,0.8410625 3.53505,0.6479375 3.21755,0.6479375" id="Fill-6" fill="#1D1D1B" fill-rule="nonzero" mask="url(#mask-4)"></path>
                </g>
            </g>
            <path d="M8.61827957,51.125 C8.27688172,51.125 8,51.2929348 8,51.5 C8,51.7070652 8.27688172,51.875 8.61827957,51.875 L12.3817204,51.875 C12.7231183,51.875 13,51.7070652 13,51.5 C13,51.2929348 12.7231183,51.125 12.3817204,51.125 L8.61827957,51.125 Z" id="Fill-9" fill="#1D1D1B" fill-rule="nonzero"></path>
            <path d="M13.6182796,51.125 C13.2768817,51.125 13,51.2929348 13,51.5 C13,51.7070652 13.2768817,51.875 13.6182796,51.875 L17.3817204,51.875 C17.7231183,51.875 18,51.7070652 18,51.5 C18,51.2929348 17.7231183,51.125 17.3817204,51.125 L13.6182796,51.125 Z" id="Fill-11" fill="#1D1D1B" fill-rule="nonzero"></path>
            <path d="M27.6182796,51.125 C27.2768817,51.125 27,51.2929348 27,51.5 C27,51.7070652 27.2768817,51.875 27.6182796,51.875 L31.3817204,51.875 C31.7231183,51.875 32,51.7070652 32,51.5 C32,51.2929348 31.7231183,51.125 31.3817204,51.125 L27.6182796,51.125 Z" id="Fill-13" fill="#1D1D1B" fill-rule="nonzero"></path>
            <path d="M21.6182796,51.125 C21.2768817,51.125 21,51.2929348 21,51.5 C21,51.7070652 21.2768817,51.875 21.6182796,51.875 L25.3817204,51.875 C25.7231183,51.875 26,51.7070652 26,51.5 C26,51.2929348 25.7231183,51.125 25.3817204,51.125 L21.6182796,51.125 Z" id="Fill-15" fill="#1D1D1B" fill-rule="nonzero"></path>
            <path d="M40.6182796,51.125 C40.2768817,51.125 40,51.2929348 40,51.5 C40,51.7070652 40.2768817,51.875 40.6182796,51.875 L44.3817204,51.875 C44.7231183,51.875 45,51.7070652 45,51.5 C45,51.2929348 44.7231183,51.125 44.3817204,51.125 L40.6182796,51.125 Z" id="Fill-17" fill="#1D1D1B" fill-rule="nonzero"></path>
            <path d="M32.6182796,51.125 C32.2768817,51.125 32,51.2929348 32,51.5 C32,51.7070652 32.2768817,51.875 32.6182796,51.875 L36.3817204,51.875 C36.7231183,51.875 37,51.7070652 37,51.5 C37,51.2929348 36.7231183,51.125 36.3817204,51.125 L32.6182796,51.125 Z" id="Fill-19" fill="#1D1D1B" fill-rule="nonzero"></path>
            <path d="M46.6182796,51.125 C46.2768817,51.125 46,51.2929348 46,51.5 C46,51.7070652 46.2768817,51.875 46.6182796,51.875 L50.3817204,51.875 C50.7231183,51.875 51,51.7070652 51,51.5 C51,51.2929348 50.7231183,51.125 50.3817204,51.125 L46.6182796,51.125 Z" id="Fill-21" fill="#1D1D1B" fill-rule="nonzero"></path>
            <g id="Group-25">
                <g id="Fill-23-Clipped">
                    <mask id="mask-6" fill="white">
                        <use xlink:href="#path-5"></use>
                    </mask>
                    <g id="path-5"></g>
                    <path d="M3.46666638,39.0025291 C4.7254657,39.0025291 5.74949508,40.0291097 5.74949508,41.2910452 C5.74949508,42.5529807 4.7254657,43.5795613 3.46666638,43.5795613 C2.20786706,43.5795613 1.18383769,42.5529807 1.18383769,41.2910452 C1.18383769,40.0291097 2.20786706,39.0025291 3.46666638,39.0025291 L3.46666638,39.0025291 Z M3.46666638,34.7202064 C4.21164904,34.7202064 4.81762319,35.3276903 4.81762319,36.0745291 C4.81762319,36.8213677 4.21164904,37.4288516 3.46666638,37.4288516 C2.72168372,37.4288516 2.11570957,36.8213677 2.11570957,36.0745291 C2.11570957,35.3276903 2.72168372,34.7202064 3.46666638,34.7202064 L3.46666638,34.7202064 Z M10.2368958,46.3000775 L10.2368958,33.1744 L30.5475842,33.1744 L30.5475842,46.3000775 C30.5475842,46.4089807 30.4590306,46.4977548 30.3503979,46.4977548 L21.5635154,46.4977548 L21.5635154,38.6329807 L15.5526844,38.6329807 L15.5526844,46.4977548 L10.434082,46.4977548 C10.3254494,46.4977548 10.2368958,46.4089807 10.2368958,46.3000775 L10.2368958,46.3000775 Z M10.434082,7.96820645 L18.448695,7.96820645 L18.448695,31.9878193 L10.2368958,31.9878193 L10.2368958,8.16588387 C10.2368958,8.05698064 10.3254494,7.96820645 10.434082,7.96820645 L10.434082,7.96820645 Z M30.5475842,8.16588387 L30.5475842,31.9878193 L19.6328416,31.9878193 L19.6328416,7.96820645 L30.3503979,7.96820645 C30.4590306,7.96820645 30.5475842,8.05698064 30.5475842,8.16588387 L30.5475842,8.16588387 Z M31.7317308,1.70136775 C31.7317308,1.59246452 31.8202843,1.50369032 31.9289169,1.50369032 L42.9667077,1.50369032 C43.0753403,1.50369032 43.1638939,1.59246452 43.1638939,1.70136775 L43.1638939,16.4688516 L43.1638939,46.3000775 C43.1638939,46.4089807 43.0753403,46.4977548 42.9667077,46.4977548 L40.4841186,46.4977548 L40.4841186,38.6329807 L34.4732875,38.6329807 L34.4732875,46.4977548 L31.9289169,46.4977548 C31.8202843,46.4977548 31.7317308,46.4089807 31.7317308,46.3000775 L31.7317308,8.16588387 L31.7317308,1.70136775 Z M44.5452266,16.2711741 L53.6471951,16.2711741 C53.7558277,16.2711741 53.8443813,16.3599484 53.8443813,16.4688516 L53.8443813,46.3000775 C53.8443813,46.4089807 53.7558277,46.4977548 53.6471951,46.4977548 L52.196873,46.4977548 L52.196873,38.6329807 L46.1860419,38.6329807 L46.1860419,46.4977548 L44.5452266,46.4977548 C44.436594,46.4977548 44.3480404,46.4089807 44.3480404,46.3000775 L44.3480404,16.4688516 C44.3480404,16.3599484 44.436594,16.2711741 44.5452266,16.2711741 L44.5452266,16.2711741 Z M47.3701885,46.4972387 L51.0127264,46.4972387 L51.0127264,39.8195613 L47.3701885,39.8195613 L47.3701885,46.4972387 Z M35.6574341,46.4972387 L39.2999721,46.4972387 L39.2999721,39.8195613 L35.6574341,39.8195613 L35.6574341,46.4972387 Z M16.736831,46.4972387 L20.3793688,46.4972387 L20.3793688,39.8195613 L16.736831,39.8195613 L16.736831,46.4972387 Z M0.000205938538,41.2910452 C0.000205938538,43.0045936 1.24458956,44.4291097 2.87459309,44.7119484 L2.87459309,46.4977548 L0.805940469,46.4977548 C0.47901304,46.4977548 0.213867171,46.7635613 0.213867171,47.0913032 C0.213867171,47.4190452 0.47901304,47.6848516 0.805940469,47.6848516 L10.434082,47.6848516 L15.5526844,47.6848516 L21.5635154,47.6848516 L30.3503979,47.6848516 L31.9289169,47.6848516 L34.4732875,47.6848516 L40.4841186,47.6848516 L42.9667077,47.6848516 L44.5452266,47.6848516 L46.1860419,47.6848516 L52.196873,47.6848516 L53.6471951,47.6848516 L56.8572621,47.6848516 C57.1841895,47.6848516 57.4493355,47.4190452 57.4493355,47.0913032 C57.4493355,46.7635613 57.1841895,46.4977548 56.8572621,46.4977548 L55.0084489,46.4977548 C55.0177161,46.4327225 55.0285279,46.3682064 55.0285279,46.3000775 L55.0285279,16.4688516 C55.0285279,15.7054968 54.4091677,15.0845936 53.6471951,15.0845936 L44.5452266,15.0845936 C44.4772668,15.0845936 44.4129111,15.0949161 44.3480404,15.1042064 L44.3480404,1.70136775 C44.3480404,0.937496775 43.7286802,0.316593548 42.9667077,0.316593548 L31.9289169,0.316593548 C31.1669443,0.316593548 30.5475842,0.937496775 30.5475842,1.70136775 L30.5475842,6.80123871 C30.4827135,6.79194839 30.4183578,6.78110968 30.3503979,6.78110968 L10.434082,6.78110968 C9.67210939,6.78110968 9.05274923,7.40201291 9.05274923,8.16588387 L9.05274923,46.3000775 C9.05274923,46.3682064 9.06356101,46.4327225 9.07282824,46.4977548 L4.05873967,46.4977548 L4.05873967,44.7119484 C5.68874321,44.4291097 6.93312683,43.0045936 6.93312683,41.2910452 C6.93312683,39.8985291 6.11040236,38.6980129 4.92831515,38.1436903 C5.57547701,37.6827871 6.00176979,36.9292387 6.00176979,36.0745291 C6.00176979,34.6732387 4.86447422,33.5331097 3.46666638,33.5331097 C2.06885856,33.5331097 0.931562978,34.6732387 0.931562978,36.0745291 C0.931562978,36.9292387 1.35785575,37.6827871 2.00501761,38.1436903 C0.822930398,38.6980129 0.000205938538,39.8985291 0.000205938538,41.2910452 L0.000205938538,41.2910452 Z" id="Fill-23" fill="#1D1D1B" fill-rule="nonzero" mask="url(#mask-6)"></path>
                </g>
            </g>
            <path d="M16.5,31 C16.7070652,31 16.875,30.7154696 16.875,30.3646409 L16.875,26.6353591 C16.875,26.2845304 16.7070652,26 16.5,26 C16.2929348,26 16.125,26.2845304 16.125,26.6353591 L16.125,30.3646409 C16.125,30.7154696 16.2929348,31 16.5,31" id="Fill-26" fill="#1D1D1B" fill-rule="nonzero"></path>
            <path d="M16.5,17 C16.7070652,17 16.875,16.7231183 16.875,16.3817204 L16.875,12.6182796 C16.875,12.2768817 16.7070652,12 16.5,12 C16.2929348,12 16.125,12.2768817 16.125,12.6182796 L16.125,16.3817204 C16.125,16.7231183 16.2929348,17 16.5,17" id="Fill-28" fill="#1D1D1B" fill-rule="nonzero"></path>
            <path d="M16.5,23 C16.7070652,23 16.875,22.7231183 16.875,22.3817204 L16.875,18.6182796 C16.875,18.2768817 16.7070652,18 16.5,18 C16.2929348,18 16.125,18.2768817 16.125,18.6182796 L16.125,22.3817204 C16.125,22.7231183 16.2929348,23 16.5,23" id="Fill-30" fill="#1D1D1B" fill-rule="nonzero"></path>
            <path d="M12.5,17 C12.7070652,17 12.875,16.7231183 12.875,16.3817204 L12.875,12.6182796 C12.875,12.2768817 12.7070652,12 12.5,12 C12.2929348,12 12.125,12.2768817 12.125,12.6182796 L12.125,16.3817204 C12.125,16.7231183 12.2929348,17 12.5,17" id="Fill-32" fill="#1D1D1B" fill-rule="nonzero"></path>
            <path d="M12.5,31 C12.7070652,31 12.875,30.7154696 12.875,30.3646409 L12.875,26.6353591 C12.875,26.2845304 12.7070652,26 12.5,26 C12.2929348,26 12.125,26.2845304 12.125,26.6353591 L12.125,30.3646409 C12.125,30.7154696 12.2929348,31 12.5,31" id="Fill-34" fill="#1D1D1B" fill-rule="nonzero"></path>
            <path d="M12.5,23 C12.7070652,23 12.875,22.7231183 12.875,22.3817204 L12.875,18.6182796 C12.875,18.2768817 12.7070652,18 12.5,18 C12.2929348,18 12.125,18.2768817 12.125,18.6182796 L12.125,22.3817204 C12.125,22.7231183 12.2929348,23 12.5,23" id="Fill-36" fill="#1D1D1B" fill-rule="nonzero"></path>
            <path d="M51.5,38 C51.7070652,38 51.875,37.7154696 51.875,37.3646409 L51.875,33.6353591 C51.875,33.2845304 51.7070652,33 51.5,33 C51.2929348,33 51.125,33.2845304 51.125,33.6353591 L51.125,37.3646409 C51.125,37.7154696 51.2929348,38 51.5,38" id="Fill-38" fill="#1D1D1B" fill-rule="nonzero"></path>
            <path d="M51.5,31 C51.7070652,31 51.875,30.7231183 51.875,30.3817204 L51.875,26.6182796 C51.875,26.2768817 51.7070652,26 51.5,26 C51.2929348,26 51.125,26.2768817 51.125,26.6182796 L51.125,30.3817204 C51.125,30.7231183 51.2929348,31 51.5,31" id="Fill-40" fill="#1D1D1B" fill-rule="nonzero"></path>
            <path d="M51.5,23 C51.7070652,23 51.875,22.7231183 51.875,22.3817204 L51.875,18.6182796 C51.875,18.2768817 51.7070652,18 51.5,18 C51.2929348,18 51.125,18.2768817 51.125,18.6182796 L51.125,22.3817204 C51.125,22.7231183 51.2929348,23 51.5,23" id="Fill-42" fill="#1D1D1B" fill-rule="nonzero"></path>
            <path d="M46.5,23 C46.7070652,23 46.875,22.7231183 46.875,22.3817204 L46.875,18.6182796 C46.875,18.2768817 46.7070652,18 46.5,18 C46.2929348,18 46.125,18.2768817 46.125,18.6182796 L46.125,22.3817204 C46.125,22.7231183 46.2929348,23 46.5,23" id="Fill-44" fill="#1D1D1B" fill-rule="nonzero"></path>
            <path d="M46.5,31 C46.7070652,31 46.875,30.7231183 46.875,30.3817204 L46.875,26.6182796 C46.875,26.2768817 46.7070652,26 46.5,26 C46.2929348,26 46.125,26.2768817 46.125,26.6182796 L46.125,30.3817204 C46.125,30.7231183 46.2929348,31 46.5,31" id="Fill-46" fill="#1D1D1B" fill-rule="nonzero"></path>
            <path d="M46.5,38 C46.7070652,38 46.875,37.7154696 46.875,37.3646409 L46.875,33.6353591 C46.875,33.2845304 46.7070652,33 46.5,33 C46.2929348,33 46.125,33.2845304 46.125,33.6353591 L46.125,37.3646409 C46.125,37.7154696 46.2929348,38 46.5,38" id="Fill-48" fill="#1D1D1B" fill-rule="nonzero"></path>
            <path d="M25.5,31 C25.7070652,31 25.875,30.7154696 25.875,30.3646409 L25.875,26.6353591 C25.875,26.2845304 25.7070652,26 25.5,26 C25.2929348,26 25.125,26.2845304 25.125,26.6353591 L25.125,30.3646409 C25.125,30.7154696 25.2929348,31 25.5,31" id="Fill-50" fill="#1D1D1B" fill-rule="nonzero"></path>
            <path d="M25.5,23 C25.7070652,23 25.875,22.7231183 25.875,22.3817204 L25.875,18.6182796 C25.875,18.2768817 25.7070652,18 25.5,18 C25.2929348,18 25.125,18.2768817 25.125,18.6182796 L25.125,22.3817204 C25.125,22.7231183 25.2929348,23 25.5,23" id="Fill-52" fill="#1D1D1B" fill-rule="nonzero"></path>
            <path d="M25.5,17 C25.7070652,17 25.875,16.7231183 25.875,16.3817204 L25.875,12.6182796 C25.875,12.2768817 25.7070652,12 25.5,12 C25.2929348,12 25.125,12.2768817 25.125,12.6182796 L25.125,16.3817204 C25.125,16.7231183 25.2929348,17 25.5,17" id="Fill-54" fill="#1D1D1B" fill-rule="nonzero"></path>
            <path d="M29.5,31 C29.7070652,31 29.875,30.7154696 29.875,30.3646409 L29.875,26.6353591 C29.875,26.2845304 29.7070652,26 29.5,26 C29.2929348,26 29.125,26.2845304 29.125,26.6353591 L29.125,30.3646409 C29.125,30.7154696 29.2929348,31 29.5,31" id="Fill-56" fill="#1D1D1B" fill-rule="nonzero"></path>
            <path d="M29.5,23 C29.7070652,23 29.875,22.7231183 29.875,22.3817204 L29.875,18.6182796 C29.875,18.2768817 29.7070652,18 29.5,18 C29.2929348,18 29.125,18.2768817 29.125,18.6182796 L29.125,22.3817204 C29.125,22.7231183 29.2929348,23 29.5,23" id="Fill-58" fill="#1D1D1B" fill-rule="nonzero"></path>
            <path d="M29.5,17 C29.7070652,17 29.875,16.7231183 29.875,16.3817204 L29.875,12.6182796 C29.875,12.2768817 29.7070652,12 29.5,12 C29.2929348,12 29.125,12.2768817 29.125,12.6182796 L29.125,16.3817204 C29.125,16.7231183 29.2929348,17 29.5,17" id="Fill-60" fill="#1D1D1B" fill-rule="nonzero"></path>
            <path d="M23.5,17 C23.7070652,17 23.875,16.7231183 23.875,16.3817204 L23.875,12.6182796 C23.875,12.2768817 23.7070652,12 23.5,12 C23.2929348,12 23.125,12.2768817 23.125,12.6182796 L23.125,16.3817204 C23.125,16.7231183 23.2929348,17 23.5,17" id="Fill-62" fill="#1D1D1B" fill-rule="nonzero"></path>
            <path d="M23.5,31 C23.7070652,31 23.875,30.7154696 23.875,30.3646409 L23.875,26.6353591 C23.875,26.2845304 23.7070652,26 23.5,26 C23.2929348,26 23.125,26.2845304 23.125,26.6353591 L23.125,30.3646409 C23.125,30.7154696 23.2929348,31 23.5,31" id="Fill-64" fill="#1D1D1B" fill-rule="nonzero"></path>
            <path d="M23.5,23 C23.7070652,23 23.875,22.7231183 23.875,22.3817204 L23.875,18.6182796 C23.875,18.2768817 23.7070652,18 23.5,18 C23.2929348,18 23.125,18.2768817 23.125,18.6182796 L23.125,22.3817204 C23.125,22.7231183 23.2929348,23 23.5,23" id="Fill-66" fill="#1D1D1B" fill-rule="nonzero"></path>
            <path d="M37.5,23 C37.7070652,23 37.875,22.7231183 37.875,22.3817204 L37.875,18.6182796 C37.875,18.2768817 37.7070652,18 37.5,18 C37.2929348,18 37.125,18.2768817 37.125,18.6182796 L37.125,22.3817204 C37.125,22.7231183 37.2929348,23 37.5,23" id="Fill-68" fill="#1D1D1B" fill-rule="nonzero"></path>
            <path d="M37.5,16 C37.7070652,16 37.875,15.7231183 37.875,15.3817204 L37.875,11.6182796 C37.875,11.2768817 37.7070652,11 37.5,11 C37.2929348,11 37.125,11.2768817 37.125,11.6182796 L37.125,15.3817204 C37.125,15.7231183 37.2929348,16 37.5,16" id="Fill-70" fill="#1D1D1B" fill-rule="nonzero"></path>
            <path d="M37.5,11 C37.7070652,11 37.875,10.7231183 37.875,10.3817204 L37.875,6.61827957 C37.875,6.27688172 37.7070652,6 37.5,6 C37.2929348,6 37.125,6.27688172 37.125,6.61827957 L37.125,10.3817204 C37.125,10.7231183 37.2929348,11 37.5,11" id="Fill-72" fill="#1D1D1B" fill-rule="nonzero"></path>
            <path d="M37.5,31 C37.7070652,31 37.875,30.7231183 37.875,30.3817204 L37.875,26.6182796 C37.875,26.2768817 37.7070652,26 37.5,26 C37.2929348,26 37.125,26.2768817 37.125,26.6182796 L37.125,30.3817204 C37.125,30.7231183 37.2929348,31 37.5,31" id="Fill-74" fill="#1D1D1B" fill-rule="nonzero"></path>
            <path d="M37.5,36 C37.7070652,36 37.875,35.7231183 37.875,35.3817204 L37.875,31.6182796 C37.875,31.2768817 37.7070652,31 37.5,31 C37.2929348,31 37.125,31.2768817 37.125,31.6182796 L37.125,35.3817204 C37.125,35.7231183 37.2929348,36 37.5,36" id="Fill-76" fill="#1D1D1B" fill-rule="nonzero"></path>
            <path d="M39.5,23 C39.7070652,23 39.875,22.7231183 39.875,22.3817204 L39.875,18.6182796 C39.875,18.2768817 39.7070652,18 39.5,18 C39.2929348,18 39.125,18.2768817 39.125,18.6182796 L39.125,22.3817204 C39.125,22.7231183 39.2929348,23 39.5,23" id="Fill-78" fill="#1D1D1B" fill-rule="nonzero"></path>
            <path d="M39.5,31 C39.7070652,31 39.875,30.7231183 39.875,30.3817204 L39.875,26.6182796 C39.875,26.2768817 39.7070652,26 39.5,26 C39.2929348,26 39.125,26.2768817 39.125,26.6182796 L39.125,30.3817204 C39.125,30.7231183 39.2929348,31 39.5,31" id="Fill-80" fill="#1D1D1B" fill-rule="nonzero"></path>
            <path d="M39.5,11 C39.7070652,11 39.875,10.7231183 39.875,10.3817204 L39.875,6.61827957 C39.875,6.27688172 39.7070652,6 39.5,6 C39.2929348,6 39.125,6.27688172 39.125,6.61827957 L39.125,10.3817204 C39.125,10.7231183 39.2929348,11 39.5,11" id="Fill-82" fill="#1D1D1B" fill-rule="nonzero"></path>
            <path d="M39.5,16 C39.7070652,16 39.875,15.7231183 39.875,15.3817204 L39.875,11.6182796 C39.875,11.2768817 39.7070652,11 39.5,11 C39.2929348,11 39.125,11.2768817 39.125,11.6182796 L39.125,15.3817204 C39.125,15.7231183 39.2929348,16 39.5,16" id="Fill-84" fill="#1D1D1B" fill-rule="nonzero"></path>
            <path d="M39.5,36 C39.7070652,36 39.875,35.7231183 39.875,35.3817204 L39.875,31.6182796 C39.875,31.2768817 39.7070652,31 39.5,31 C39.2929348,31 39.125,31.2768817 39.125,31.6182796 L39.125,35.3817204 C39.125,35.7231183 39.2929348,36 39.5,36" id="Fill-86" fill="#1D1D1B" fill-rule="nonzero"></path>
            <path d="M33.5,23 C33.7070652,23 33.875,22.7231183 33.875,22.3817204 L33.875,18.6182796 C33.875,18.2768817 33.7070652,18 33.5,18 C33.2929348,18 33.125,18.2768817 33.125,18.6182796 L33.125,22.3817204 C33.125,22.7231183 33.2929348,23 33.5,23" id="Fill-88" fill="#1D1D1B" fill-rule="nonzero"></path>
            <path d="M33.5,31 C33.7070652,31 33.875,30.7231183 33.875,30.3817204 L33.875,26.6182796 C33.875,26.2768817 33.7070652,26 33.5,26 C33.2929348,26 33.125,26.2768817 33.125,26.6182796 L33.125,30.3817204 C33.125,30.7231183 33.2929348,31 33.5,31" id="Fill-90" fill="#1D1D1B" fill-rule="nonzero"></path>
            <path d="M33.5,36 C33.7070652,36 33.875,35.7231183 33.875,35.3817204 L33.875,31.6182796 C33.875,31.2768817 33.7070652,31 33.5,31 C33.2929348,31 33.125,31.2768817 33.125,31.6182796 L33.125,35.3817204 C33.125,35.7231183 33.2929348,36 33.5,36" id="Fill-92" fill="#1D1D1B" fill-rule="nonzero"></path>
            <path d="M33.5,11 C33.7070652,11 33.875,10.7231183 33.875,10.3817204 L33.875,6.61827957 C33.875,6.27688172 33.7070652,6 33.5,6 C33.2929348,6 33.125,6.27688172 33.125,6.61827957 L33.125,10.3817204 C33.125,10.7231183 33.2929348,11 33.5,11" id="Fill-94" fill="#1D1D1B" fill-rule="nonzero"></path>
            <path d="M33.5,16 C33.7070652,16 33.875,15.7231183 33.875,15.3817204 L33.875,11.6182796 C33.875,11.2768817 33.7070652,11 33.5,11 C33.2929348,11 33.125,11.2768817 33.125,11.6182796 L33.125,15.3817204 C33.125,15.7231183 33.2929348,16 33.5,16" id="Fill-96" fill="#1D1D1B" fill-rule="nonzero"></path>
        </g>
    </g>
</svg>