<?xml version="1.0" encoding="UTF-8"?>
<svg width="65px" height="65px" viewBox="0 0 65 65" version="1.1" xmlns="http://www.w3.org/2000/svg" xmlns:xlink="http://www.w3.org/1999/xlink">
    <!-- Generator: Sketch 61.2 (89653) - https://sketch.com -->
    <title>Artboard</title>
    <desc>Created with Sketch.</desc>
    <g id="Artboard" stroke="none" stroke-width="1" fill="none" fill-rule="evenodd">
        <g id="Group-5" transform="translate(16.000000, 2.000000)" stroke-width="1.68">
            <path d="M19.9949835,1.19104172 L20.0233537,1.19077754 C20.2230462,1.19878302 20.4206762,1.36662277 20.6263393,1.73405646 C21.1196746,2.75102572 22.3041303,4.63379249 23.7037776,6.98139481 C26.8189089,12.2063465 31,19.7338788 31,25.1434405 C31,36.9958326 27.4912949,47.1425607 26.5069255,49.8416706 C25.6177934,49.8349016 22.4939182,49.8876781 17.1352997,50 L17.3346051,49.9949899 C17.3336126,49.9966599 17.3326201,49.9983299 17.3316274,50 L17.228,49.998 L17.1352997,50 C17.1345772,49.9986626 17.1338547,49.9973252 17.1331323,49.9959878 L17.3316274,50 C11.7925446,49.8883855 8.56346534,49.8359414 7.64438966,49.8426677 C6.62686923,47.1605569 3,37.077733 3,25.2999873 C3,19.9244952 7.32189939,12.4443714 10.5419403,7.25232646 C11.9887241,4.91950936 13.2130692,3.04860028 13.7230187,2.0380359 C14.7602428,0.256616465 17.7300192,-1.06012796 19.9949835,1.19104172 Z" id="Combined-Shape-Copy" stroke="#FFFFFF" transform="translate(17.000000, 25.000000) scale(-1, 1) translate(-17.000000, -25.000000) "></path>
            <circle id="Oval" stroke="#FF0000" cx="16" cy="22" r="3"></circle>
            <polygon id="Triangle" stroke="#FFFFFF" points="16.2 61 13 54 19 54"></polygon>
            <path d="M4.36955967,43 C2.03142139,44.5690879 0.510950125,45.8634454 0.131319014,48.1202437 C-0.248312097,50.3770419 0.265650023,54.2495026 0.776830962,55 C2.68676018,52.7457565 4.76114986,50.7457565 7,49 C5.91645216,46.9089636 5.03963871,44.9089636 4.36955967,43 Z" id="Path-4" stroke="#FFFFFF"></path>
            <path d="M31.3695597,43 C29.0314214,44.5690879 27.5109501,45.8634454 27.131319,48.1202437 C26.7516879,50.3770419 27.26565,54.2495026 27.776831,55 C29.6867602,52.7457565 31.7611499,50.7457565 34,49 C32.9164522,46.9089636 32.0396387,44.9089636 31.3695597,43 Z" id="Path-4-Copy" stroke="#FFFFFF" transform="translate(30.500000, 49.000000) scale(-1, 1) translate(-30.500000, -49.000000) "></path>
        </g>
    </g>
</svg>